%TF.GenerationSoftware,KiCad,Pcbnew,(5.99.0-10394-g2e15de97e0)*%
%TF.CreationDate,2021-05-18T08:39:57+02:00*%
%TF.ProjectId,SATABAL01A,53415441-4241-44c3-9031-412e6b696361,rev?*%
%TF.SameCoordinates,Original*%
%TF.FileFunction,Copper,L1,Top*%
%TF.FilePolarity,Positive*%
%FSLAX46Y46*%
G04 Gerber Fmt 4.6, Leading zero omitted, Abs format (unit mm)*
G04 Created by KiCad (PCBNEW (5.99.0-10394-g2e15de97e0)) date 2021-05-18 08:39:57*
%MOMM*%
%LPD*%
G01*
G04 APERTURE LIST*
%TA.AperFunction,ComponentPad*%
%ADD10O,1.100000X1.300000*%
%TD*%
%TA.AperFunction,ComponentPad*%
%ADD11C,2.500000*%
%TD*%
%TA.AperFunction,ComponentPad*%
%ADD12C,2.050000*%
%TD*%
%TA.AperFunction,ComponentPad*%
%ADD13C,2.250000*%
%TD*%
%TA.AperFunction,ComponentPad*%
%ADD14C,6.000000*%
%TD*%
G04 APERTURE END LIST*
D10*
%TO.P,J1,1,1*%
%TO.N,GND*%
X23926800Y22858600D03*
%TO.P,J1,2,2*%
%TO.N,/IN1N*%
X22656800Y24358600D03*
%TO.P,J1,3,3*%
%TO.N,/IN1P*%
X21386800Y24358600D03*
%TO.P,J1,4,4*%
%TO.N,GND*%
X20116800Y22858600D03*
%TO.P,J1,5,5*%
%TO.N,/IN2N*%
X18846800Y24358600D03*
%TO.P,J1,6,6*%
%TO.N,/IN2P*%
X17576800Y24358600D03*
%TO.P,J1,7,7*%
%TO.N,GND*%
X16306800Y22858600D03*
D11*
%TO.P,J1,8,4*%
X13556800Y25358600D03*
%TO.P,J1,9,7*%
X26386800Y24358600D03*
%TD*%
D12*
%TO.P,J2,1,In*%
%TO.N,/OUT2*%
X14909800Y8763000D03*
D13*
%TO.P,J2,2,Ext*%
%TO.N,GND*%
X17449800Y6223000D03*
X17449800Y11303000D03*
X12369800Y11303000D03*
X12369800Y6223000D03*
%TD*%
D14*
%TO.P,H4,1,1*%
%TO.N,GND*%
X35560000Y25400000D03*
%TD*%
D12*
%TO.P,J3,1,In*%
%TO.N,/OUT1*%
X25323800Y8763000D03*
D13*
%TO.P,J3,2,Ext*%
%TO.N,GND*%
X27863800Y6223000D03*
X22783800Y6223000D03*
X22783800Y11303000D03*
X27863800Y11303000D03*
%TD*%
D14*
%TO.P,H3,1,1*%
%TO.N,GND*%
X35560000Y5080000D03*
%TD*%
%TO.P,H2,1,1*%
%TO.N,GND*%
X5080000Y25400000D03*
%TD*%
%TO.P,H1,1,1*%
%TO.N,GND*%
X5080000Y5080000D03*
%TD*%
%TA.AperFunction,Conductor*%
%TO.N,GND*%
G36*
X39828121Y29705998D02*
G01*
X39874614Y29652342D01*
X39886000Y29600000D01*
X39886000Y880000D01*
X39865998Y811879D01*
X39812342Y765386D01*
X39760000Y754000D01*
X880000Y754000D01*
X811879Y774002D01*
X765386Y827658D01*
X754000Y880000D01*
X754000Y4898569D01*
X11410721Y4898569D01*
X11414414Y4893292D01*
X11621944Y4766117D01*
X11630738Y4761636D01*
X11859057Y4667063D01*
X11868442Y4664014D01*
X12108747Y4606321D01*
X12118494Y4604778D01*
X12364870Y4585388D01*
X12374730Y4585388D01*
X12621106Y4604778D01*
X12630853Y4606321D01*
X12871158Y4664014D01*
X12880543Y4667063D01*
X13108862Y4761636D01*
X13117656Y4766117D01*
X13323688Y4892374D01*
X13327734Y4898569D01*
X16490721Y4898569D01*
X16494414Y4893292D01*
X16701944Y4766117D01*
X16710738Y4761636D01*
X16939057Y4667063D01*
X16948442Y4664014D01*
X17188747Y4606321D01*
X17198494Y4604778D01*
X17444870Y4585388D01*
X17454730Y4585388D01*
X17701106Y4604778D01*
X17710853Y4606321D01*
X17951158Y4664014D01*
X17960543Y4667063D01*
X18188862Y4761636D01*
X18197656Y4766117D01*
X18403688Y4892374D01*
X18407734Y4898569D01*
X21824721Y4898569D01*
X21828414Y4893292D01*
X22035944Y4766117D01*
X22044738Y4761636D01*
X22273057Y4667063D01*
X22282442Y4664014D01*
X22522747Y4606321D01*
X22532494Y4604778D01*
X22778870Y4585388D01*
X22788730Y4585388D01*
X23035106Y4604778D01*
X23044853Y4606321D01*
X23285158Y4664014D01*
X23294543Y4667063D01*
X23522862Y4761636D01*
X23531656Y4766117D01*
X23737688Y4892374D01*
X23741734Y4898569D01*
X26904721Y4898569D01*
X26908414Y4893292D01*
X27115944Y4766117D01*
X27124738Y4761636D01*
X27353057Y4667063D01*
X27362442Y4664014D01*
X27602747Y4606321D01*
X27612494Y4604778D01*
X27858870Y4585388D01*
X27868730Y4585388D01*
X28115106Y4604778D01*
X28124853Y4606321D01*
X28365158Y4664014D01*
X28374543Y4667063D01*
X28602862Y4761636D01*
X28611656Y4766117D01*
X28817688Y4892374D01*
X28822952Y4900434D01*
X28816944Y4910646D01*
X27876612Y5850978D01*
X27862668Y5858592D01*
X27860835Y5858461D01*
X27854220Y5854210D01*
X26912111Y4912101D01*
X26904721Y4898569D01*
X23741734Y4898569D01*
X23742952Y4900434D01*
X23736944Y4910646D01*
X22796612Y5850978D01*
X22782668Y5858592D01*
X22780835Y5858461D01*
X22774220Y5854210D01*
X21832111Y4912101D01*
X21824721Y4898569D01*
X18407734Y4898569D01*
X18408952Y4900434D01*
X18402944Y4910646D01*
X17462612Y5850978D01*
X17448668Y5858592D01*
X17446835Y5858461D01*
X17440220Y5854210D01*
X16498111Y4912101D01*
X16490721Y4898569D01*
X13327734Y4898569D01*
X13328952Y4900434D01*
X13322944Y4910646D01*
X12382612Y5850978D01*
X12368668Y5858592D01*
X12366835Y5858461D01*
X12360220Y5854210D01*
X11418111Y4912101D01*
X11410721Y4898569D01*
X754000Y4898569D01*
X754000Y6227930D01*
X10732188Y6227930D01*
X10732188Y6218070D01*
X10751578Y5971694D01*
X10753121Y5961947D01*
X10810814Y5721642D01*
X10813863Y5712257D01*
X10908436Y5483938D01*
X10912917Y5475144D01*
X11039174Y5269112D01*
X11047234Y5263848D01*
X11057446Y5269856D01*
X11997778Y6210188D01*
X12004156Y6221868D01*
X12734208Y6221868D01*
X12734339Y6220035D01*
X12738590Y6213420D01*
X13680699Y5271311D01*
X13694231Y5263921D01*
X13699508Y5267614D01*
X13826683Y5475144D01*
X13831164Y5483938D01*
X13925737Y5712257D01*
X13928786Y5721642D01*
X13986479Y5961947D01*
X13988022Y5971694D01*
X14007412Y6218070D01*
X14007412Y6227930D01*
X15812188Y6227930D01*
X15812188Y6218070D01*
X15831578Y5971694D01*
X15833121Y5961947D01*
X15890814Y5721642D01*
X15893863Y5712257D01*
X15988436Y5483938D01*
X15992917Y5475144D01*
X16119174Y5269112D01*
X16127234Y5263848D01*
X16137446Y5269856D01*
X17077778Y6210188D01*
X17084156Y6221868D01*
X17814208Y6221868D01*
X17814339Y6220035D01*
X17818590Y6213420D01*
X18760699Y5271311D01*
X18774231Y5263921D01*
X18779508Y5267614D01*
X18906683Y5475144D01*
X18911164Y5483938D01*
X19005737Y5712257D01*
X19008786Y5721642D01*
X19066479Y5961947D01*
X19068022Y5971694D01*
X19087412Y6218070D01*
X19087412Y6227930D01*
X21146188Y6227930D01*
X21146188Y6218070D01*
X21165578Y5971694D01*
X21167121Y5961947D01*
X21224814Y5721642D01*
X21227863Y5712257D01*
X21322436Y5483938D01*
X21326917Y5475144D01*
X21453174Y5269112D01*
X21461234Y5263848D01*
X21471446Y5269856D01*
X22411778Y6210188D01*
X22418156Y6221868D01*
X23148208Y6221868D01*
X23148339Y6220035D01*
X23152590Y6213420D01*
X24094699Y5271311D01*
X24108231Y5263921D01*
X24113508Y5267614D01*
X24240683Y5475144D01*
X24245164Y5483938D01*
X24339737Y5712257D01*
X24342786Y5721642D01*
X24400479Y5961947D01*
X24402022Y5971694D01*
X24421412Y6218070D01*
X24421412Y6227930D01*
X26226188Y6227930D01*
X26226188Y6218070D01*
X26245578Y5971694D01*
X26247121Y5961947D01*
X26304814Y5721642D01*
X26307863Y5712257D01*
X26402436Y5483938D01*
X26406917Y5475144D01*
X26533174Y5269112D01*
X26541234Y5263848D01*
X26551446Y5269856D01*
X27491778Y6210188D01*
X27498156Y6221868D01*
X28228208Y6221868D01*
X28228339Y6220035D01*
X28232590Y6213420D01*
X29174699Y5271311D01*
X29188231Y5263921D01*
X29193508Y5267614D01*
X29320683Y5475144D01*
X29325164Y5483938D01*
X29419737Y5712257D01*
X29422786Y5721642D01*
X29480479Y5961947D01*
X29482022Y5971694D01*
X29501412Y6218070D01*
X29501412Y6227930D01*
X29482022Y6474306D01*
X29480479Y6484053D01*
X29422786Y6724358D01*
X29419737Y6733743D01*
X29325164Y6962062D01*
X29320683Y6970856D01*
X29194426Y7176888D01*
X29186366Y7182152D01*
X29176154Y7176144D01*
X28235822Y6235812D01*
X28228208Y6221868D01*
X27498156Y6221868D01*
X27499392Y6224132D01*
X27499261Y6225965D01*
X27495010Y6232580D01*
X26552901Y7174689D01*
X26539369Y7182079D01*
X26534092Y7178386D01*
X26406917Y6970856D01*
X26402436Y6962062D01*
X26307863Y6733743D01*
X26304814Y6724358D01*
X26247121Y6484053D01*
X26245578Y6474306D01*
X26226188Y6227930D01*
X24421412Y6227930D01*
X24402022Y6474306D01*
X24400479Y6484053D01*
X24342786Y6724358D01*
X24339737Y6733743D01*
X24245164Y6962062D01*
X24240683Y6970856D01*
X24114426Y7176888D01*
X24106366Y7182152D01*
X24096154Y7176144D01*
X23155822Y6235812D01*
X23148208Y6221868D01*
X22418156Y6221868D01*
X22419392Y6224132D01*
X22419261Y6225965D01*
X22415010Y6232580D01*
X21472901Y7174689D01*
X21459369Y7182079D01*
X21454092Y7178386D01*
X21326917Y6970856D01*
X21322436Y6962062D01*
X21227863Y6733743D01*
X21224814Y6724358D01*
X21167121Y6484053D01*
X21165578Y6474306D01*
X21146188Y6227930D01*
X19087412Y6227930D01*
X19068022Y6474306D01*
X19066479Y6484053D01*
X19008786Y6724358D01*
X19005737Y6733743D01*
X18911164Y6962062D01*
X18906683Y6970856D01*
X18780426Y7176888D01*
X18772366Y7182152D01*
X18762154Y7176144D01*
X17821822Y6235812D01*
X17814208Y6221868D01*
X17084156Y6221868D01*
X17085392Y6224132D01*
X17085261Y6225965D01*
X17081010Y6232580D01*
X16138901Y7174689D01*
X16125369Y7182079D01*
X16120092Y7178386D01*
X15992917Y6970856D01*
X15988436Y6962062D01*
X15893863Y6733743D01*
X15890814Y6724358D01*
X15833121Y6484053D01*
X15831578Y6474306D01*
X15812188Y6227930D01*
X14007412Y6227930D01*
X13988022Y6474306D01*
X13986479Y6484053D01*
X13928786Y6724358D01*
X13925737Y6733743D01*
X13831164Y6962062D01*
X13826683Y6970856D01*
X13700426Y7176888D01*
X13692366Y7182152D01*
X13682154Y7176144D01*
X12741822Y6235812D01*
X12734208Y6221868D01*
X12004156Y6221868D01*
X12005392Y6224132D01*
X12005261Y6225965D01*
X12001010Y6232580D01*
X11058901Y7174689D01*
X11045369Y7182079D01*
X11040092Y7178386D01*
X10912917Y6970856D01*
X10908436Y6962062D01*
X10813863Y6733743D01*
X10810814Y6724358D01*
X10753121Y6484053D01*
X10751578Y6474306D01*
X10732188Y6227930D01*
X754000Y6227930D01*
X754000Y7545566D01*
X11410648Y7545566D01*
X11416656Y7535354D01*
X12356988Y6595022D01*
X12370932Y6587408D01*
X12372765Y6587539D01*
X12379380Y6591790D01*
X13321489Y7533899D01*
X13328879Y7547431D01*
X13325186Y7552708D01*
X13117656Y7679883D01*
X13108862Y7684364D01*
X12880543Y7778937D01*
X12871158Y7781986D01*
X12630853Y7839679D01*
X12621106Y7841222D01*
X12374730Y7860612D01*
X12364870Y7860612D01*
X12118494Y7841222D01*
X12108747Y7839679D01*
X11868442Y7781986D01*
X11859057Y7778937D01*
X11630738Y7684364D01*
X11621944Y7679883D01*
X11415912Y7553626D01*
X11410648Y7545566D01*
X754000Y7545566D01*
X754000Y8763000D01*
X13579300Y8763000D01*
X13599513Y8531961D01*
X13659539Y8307942D01*
X13661861Y8302961D01*
X13661862Y8302960D01*
X13755227Y8102737D01*
X13755230Y8102732D01*
X13757553Y8097750D01*
X13890578Y7907771D01*
X14054571Y7743778D01*
X14059079Y7740621D01*
X14059082Y7740619D01*
X14138395Y7685084D01*
X14244550Y7610753D01*
X14249532Y7608430D01*
X14249537Y7608427D01*
X14409364Y7533899D01*
X14454742Y7512739D01*
X14460050Y7511317D01*
X14460052Y7511316D01*
X14529509Y7492705D01*
X14678761Y7452713D01*
X14909800Y7432500D01*
X15140839Y7452713D01*
X15290091Y7492705D01*
X15359548Y7511316D01*
X15359550Y7511317D01*
X15364858Y7512739D01*
X15410236Y7533899D01*
X15435256Y7545566D01*
X16490648Y7545566D01*
X16496656Y7535354D01*
X17436988Y6595022D01*
X17450932Y6587408D01*
X17452765Y6587539D01*
X17459380Y6591790D01*
X18401489Y7533899D01*
X18407860Y7545566D01*
X21824648Y7545566D01*
X21830656Y7535354D01*
X22770988Y6595022D01*
X22784932Y6587408D01*
X22786765Y6587539D01*
X22793380Y6591790D01*
X23735489Y7533899D01*
X23742879Y7547431D01*
X23739186Y7552708D01*
X23531656Y7679883D01*
X23522862Y7684364D01*
X23294543Y7778937D01*
X23285158Y7781986D01*
X23044853Y7839679D01*
X23035106Y7841222D01*
X22788730Y7860612D01*
X22778870Y7860612D01*
X22532494Y7841222D01*
X22522747Y7839679D01*
X22282442Y7781986D01*
X22273057Y7778937D01*
X22044738Y7684364D01*
X22035944Y7679883D01*
X21829912Y7553626D01*
X21824648Y7545566D01*
X18407860Y7545566D01*
X18408879Y7547431D01*
X18405186Y7552708D01*
X18197656Y7679883D01*
X18188862Y7684364D01*
X17960543Y7778937D01*
X17951158Y7781986D01*
X17710853Y7839679D01*
X17701106Y7841222D01*
X17454730Y7860612D01*
X17444870Y7860612D01*
X17198494Y7841222D01*
X17188747Y7839679D01*
X16948442Y7781986D01*
X16939057Y7778937D01*
X16710738Y7684364D01*
X16701944Y7679883D01*
X16495912Y7553626D01*
X16490648Y7545566D01*
X15435256Y7545566D01*
X15570063Y7608427D01*
X15570068Y7608430D01*
X15575050Y7610753D01*
X15681205Y7685084D01*
X15760518Y7740619D01*
X15760521Y7740621D01*
X15765029Y7743778D01*
X15929022Y7907771D01*
X16062047Y8097750D01*
X16064370Y8102732D01*
X16064373Y8102737D01*
X16157738Y8302960D01*
X16157739Y8302961D01*
X16160061Y8307942D01*
X16220087Y8531961D01*
X16240300Y8763000D01*
X23993300Y8763000D01*
X24013513Y8531961D01*
X24073539Y8307942D01*
X24075861Y8302961D01*
X24075862Y8302960D01*
X24169227Y8102737D01*
X24169230Y8102732D01*
X24171553Y8097750D01*
X24304578Y7907771D01*
X24468571Y7743778D01*
X24473079Y7740621D01*
X24473082Y7740619D01*
X24552395Y7685084D01*
X24658550Y7610753D01*
X24663532Y7608430D01*
X24663537Y7608427D01*
X24823364Y7533899D01*
X24868742Y7512739D01*
X24874050Y7511317D01*
X24874052Y7511316D01*
X24943509Y7492705D01*
X25092761Y7452713D01*
X25323800Y7432500D01*
X25554839Y7452713D01*
X25704091Y7492705D01*
X25773548Y7511316D01*
X25773550Y7511317D01*
X25778858Y7512739D01*
X25824236Y7533899D01*
X25849256Y7545566D01*
X26904648Y7545566D01*
X26910656Y7535354D01*
X27850988Y6595022D01*
X27864932Y6587408D01*
X27866765Y6587539D01*
X27873380Y6591790D01*
X28815489Y7533899D01*
X28822879Y7547431D01*
X28819186Y7552708D01*
X28611656Y7679883D01*
X28602862Y7684364D01*
X28374543Y7778937D01*
X28365158Y7781986D01*
X28124853Y7839679D01*
X28115106Y7841222D01*
X27868730Y7860612D01*
X27858870Y7860612D01*
X27612494Y7841222D01*
X27602747Y7839679D01*
X27362442Y7781986D01*
X27353057Y7778937D01*
X27124738Y7684364D01*
X27115944Y7679883D01*
X26909912Y7553626D01*
X26904648Y7545566D01*
X25849256Y7545566D01*
X25984063Y7608427D01*
X25984068Y7608430D01*
X25989050Y7610753D01*
X26095205Y7685084D01*
X26174518Y7740619D01*
X26174521Y7740621D01*
X26179029Y7743778D01*
X26343022Y7907771D01*
X26476047Y8097750D01*
X26478370Y8102732D01*
X26478373Y8102737D01*
X26571738Y8302960D01*
X26571739Y8302961D01*
X26574061Y8307942D01*
X26634087Y8531961D01*
X26654300Y8763000D01*
X26634087Y8994039D01*
X26574061Y9218058D01*
X26571738Y9223040D01*
X26478373Y9423263D01*
X26478370Y9423268D01*
X26476047Y9428250D01*
X26343022Y9618229D01*
X26179029Y9782222D01*
X26174521Y9785379D01*
X26174518Y9785381D01*
X26087778Y9846117D01*
X25989050Y9915247D01*
X25984068Y9917570D01*
X25984063Y9917573D01*
X25853256Y9978569D01*
X26904721Y9978569D01*
X26908414Y9973292D01*
X27115944Y9846117D01*
X27124738Y9841636D01*
X27353057Y9747063D01*
X27362442Y9744014D01*
X27602747Y9686321D01*
X27612494Y9684778D01*
X27858870Y9665388D01*
X27868730Y9665388D01*
X28115106Y9684778D01*
X28124853Y9686321D01*
X28365158Y9744014D01*
X28374543Y9747063D01*
X28602862Y9841636D01*
X28611656Y9846117D01*
X28817688Y9972374D01*
X28822952Y9980434D01*
X28816944Y9990646D01*
X27876612Y10930978D01*
X27862668Y10938592D01*
X27860835Y10938461D01*
X27854220Y10934210D01*
X26912111Y9992101D01*
X26904721Y9978569D01*
X25853256Y9978569D01*
X25783840Y10010938D01*
X25783839Y10010939D01*
X25778858Y10013261D01*
X25773550Y10014683D01*
X25773548Y10014684D01*
X25704091Y10033295D01*
X25554839Y10073287D01*
X25323800Y10093500D01*
X25092761Y10073287D01*
X24943509Y10033295D01*
X24874052Y10014684D01*
X24874050Y10014683D01*
X24868742Y10013261D01*
X24863761Y10010939D01*
X24863760Y10010938D01*
X24663537Y9917573D01*
X24663532Y9917570D01*
X24658550Y9915247D01*
X24559822Y9846117D01*
X24473082Y9785381D01*
X24473079Y9785379D01*
X24468571Y9782222D01*
X24304578Y9618229D01*
X24171553Y9428250D01*
X24169230Y9423268D01*
X24169227Y9423263D01*
X24075862Y9223040D01*
X24073539Y9218058D01*
X24013513Y8994039D01*
X23993300Y8763000D01*
X16240300Y8763000D01*
X16220087Y8994039D01*
X16160061Y9218058D01*
X16157738Y9223040D01*
X16064373Y9423263D01*
X16064370Y9423268D01*
X16062047Y9428250D01*
X15929022Y9618229D01*
X15765029Y9782222D01*
X15760521Y9785379D01*
X15760518Y9785381D01*
X15673778Y9846117D01*
X15575050Y9915247D01*
X15570068Y9917570D01*
X15570063Y9917573D01*
X15439256Y9978569D01*
X16490721Y9978569D01*
X16494414Y9973292D01*
X16701944Y9846117D01*
X16710738Y9841636D01*
X16939057Y9747063D01*
X16948442Y9744014D01*
X17188747Y9686321D01*
X17198494Y9684778D01*
X17444870Y9665388D01*
X17454730Y9665388D01*
X17701106Y9684778D01*
X17710853Y9686321D01*
X17951158Y9744014D01*
X17960543Y9747063D01*
X18188862Y9841636D01*
X18197656Y9846117D01*
X18403688Y9972374D01*
X18407734Y9978569D01*
X21824721Y9978569D01*
X21828414Y9973292D01*
X22035944Y9846117D01*
X22044738Y9841636D01*
X22273057Y9747063D01*
X22282442Y9744014D01*
X22522747Y9686321D01*
X22532494Y9684778D01*
X22778870Y9665388D01*
X22788730Y9665388D01*
X23035106Y9684778D01*
X23044853Y9686321D01*
X23285158Y9744014D01*
X23294543Y9747063D01*
X23522862Y9841636D01*
X23531656Y9846117D01*
X23737688Y9972374D01*
X23742952Y9980434D01*
X23736944Y9990646D01*
X22796612Y10930978D01*
X22782668Y10938592D01*
X22780835Y10938461D01*
X22774220Y10934210D01*
X21832111Y9992101D01*
X21824721Y9978569D01*
X18407734Y9978569D01*
X18408952Y9980434D01*
X18402944Y9990646D01*
X17462612Y10930978D01*
X17448668Y10938592D01*
X17446835Y10938461D01*
X17440220Y10934210D01*
X16498111Y9992101D01*
X16490721Y9978569D01*
X15439256Y9978569D01*
X15369840Y10010938D01*
X15369839Y10010939D01*
X15364858Y10013261D01*
X15359550Y10014683D01*
X15359548Y10014684D01*
X15290091Y10033295D01*
X15140839Y10073287D01*
X14909800Y10093500D01*
X14678761Y10073287D01*
X14529509Y10033295D01*
X14460052Y10014684D01*
X14460050Y10014683D01*
X14454742Y10013261D01*
X14449761Y10010939D01*
X14449760Y10010938D01*
X14249537Y9917573D01*
X14249532Y9917570D01*
X14244550Y9915247D01*
X14145822Y9846117D01*
X14059082Y9785381D01*
X14059079Y9785379D01*
X14054571Y9782222D01*
X13890578Y9618229D01*
X13757553Y9428250D01*
X13755230Y9423268D01*
X13755227Y9423263D01*
X13661862Y9223040D01*
X13659539Y9218058D01*
X13599513Y8994039D01*
X13579300Y8763000D01*
X754000Y8763000D01*
X754000Y9978569D01*
X11410721Y9978569D01*
X11414414Y9973292D01*
X11621944Y9846117D01*
X11630738Y9841636D01*
X11859057Y9747063D01*
X11868442Y9744014D01*
X12108747Y9686321D01*
X12118494Y9684778D01*
X12364870Y9665388D01*
X12374730Y9665388D01*
X12621106Y9684778D01*
X12630853Y9686321D01*
X12871158Y9744014D01*
X12880543Y9747063D01*
X13108862Y9841636D01*
X13117656Y9846117D01*
X13323688Y9972374D01*
X13328952Y9980434D01*
X13322944Y9990646D01*
X12382612Y10930978D01*
X12368668Y10938592D01*
X12366835Y10938461D01*
X12360220Y10934210D01*
X11418111Y9992101D01*
X11410721Y9978569D01*
X754000Y9978569D01*
X754000Y11307930D01*
X10732188Y11307930D01*
X10732188Y11298070D01*
X10751578Y11051694D01*
X10753121Y11041947D01*
X10810814Y10801642D01*
X10813863Y10792257D01*
X10908436Y10563938D01*
X10912917Y10555144D01*
X11039174Y10349112D01*
X11047234Y10343848D01*
X11057446Y10349856D01*
X11997778Y11290188D01*
X12004156Y11301868D01*
X12734208Y11301868D01*
X12734339Y11300035D01*
X12738590Y11293420D01*
X13680699Y10351311D01*
X13694231Y10343921D01*
X13699508Y10347614D01*
X13826683Y10555144D01*
X13831164Y10563938D01*
X13925737Y10792257D01*
X13928786Y10801642D01*
X13986479Y11041947D01*
X13988022Y11051694D01*
X14007412Y11298070D01*
X14007412Y11307930D01*
X15812188Y11307930D01*
X15812188Y11298070D01*
X15831578Y11051694D01*
X15833121Y11041947D01*
X15890814Y10801642D01*
X15893863Y10792257D01*
X15988436Y10563938D01*
X15992917Y10555144D01*
X16119174Y10349112D01*
X16127234Y10343848D01*
X16137446Y10349856D01*
X17077778Y11290188D01*
X17084156Y11301868D01*
X17814208Y11301868D01*
X17814339Y11300035D01*
X17818590Y11293420D01*
X18760699Y10351311D01*
X18774231Y10343921D01*
X18779508Y10347614D01*
X18906683Y10555144D01*
X18911164Y10563938D01*
X19005737Y10792257D01*
X19008786Y10801642D01*
X19066479Y11041947D01*
X19068022Y11051694D01*
X19087412Y11298070D01*
X19087412Y11307930D01*
X21146188Y11307930D01*
X21146188Y11298070D01*
X21165578Y11051694D01*
X21167121Y11041947D01*
X21224814Y10801642D01*
X21227863Y10792257D01*
X21322436Y10563938D01*
X21326917Y10555144D01*
X21453174Y10349112D01*
X21461234Y10343848D01*
X21471446Y10349856D01*
X22411778Y11290188D01*
X22418156Y11301868D01*
X23148208Y11301868D01*
X23148339Y11300035D01*
X23152590Y11293420D01*
X24094699Y10351311D01*
X24108231Y10343921D01*
X24113508Y10347614D01*
X24240683Y10555144D01*
X24245164Y10563938D01*
X24339737Y10792257D01*
X24342786Y10801642D01*
X24400479Y11041947D01*
X24402022Y11051694D01*
X24421412Y11298070D01*
X24421412Y11307930D01*
X26226188Y11307930D01*
X26226188Y11298070D01*
X26245578Y11051694D01*
X26247121Y11041947D01*
X26304814Y10801642D01*
X26307863Y10792257D01*
X26402436Y10563938D01*
X26406917Y10555144D01*
X26533174Y10349112D01*
X26541234Y10343848D01*
X26551446Y10349856D01*
X27491778Y11290188D01*
X27498156Y11301868D01*
X28228208Y11301868D01*
X28228339Y11300035D01*
X28232590Y11293420D01*
X29174699Y10351311D01*
X29188231Y10343921D01*
X29193508Y10347614D01*
X29320683Y10555144D01*
X29325164Y10563938D01*
X29419737Y10792257D01*
X29422786Y10801642D01*
X29480479Y11041947D01*
X29482022Y11051694D01*
X29501412Y11298070D01*
X29501412Y11307930D01*
X29482022Y11554306D01*
X29480479Y11564053D01*
X29422786Y11804358D01*
X29419737Y11813743D01*
X29325164Y12042062D01*
X29320683Y12050856D01*
X29194426Y12256888D01*
X29186366Y12262152D01*
X29176154Y12256144D01*
X28235822Y11315812D01*
X28228208Y11301868D01*
X27498156Y11301868D01*
X27499392Y11304132D01*
X27499261Y11305965D01*
X27495010Y11312580D01*
X26552901Y12254689D01*
X26539369Y12262079D01*
X26534092Y12258386D01*
X26406917Y12050856D01*
X26402436Y12042062D01*
X26307863Y11813743D01*
X26304814Y11804358D01*
X26247121Y11564053D01*
X26245578Y11554306D01*
X26226188Y11307930D01*
X24421412Y11307930D01*
X24402022Y11554306D01*
X24400479Y11564053D01*
X24342786Y11804358D01*
X24339737Y11813743D01*
X24245164Y12042062D01*
X24240683Y12050856D01*
X24114426Y12256888D01*
X24106366Y12262152D01*
X24096154Y12256144D01*
X23155822Y11315812D01*
X23148208Y11301868D01*
X22418156Y11301868D01*
X22419392Y11304132D01*
X22419261Y11305965D01*
X22415010Y11312580D01*
X21472901Y12254689D01*
X21459369Y12262079D01*
X21454092Y12258386D01*
X21326917Y12050856D01*
X21322436Y12042062D01*
X21227863Y11813743D01*
X21224814Y11804358D01*
X21167121Y11564053D01*
X21165578Y11554306D01*
X21146188Y11307930D01*
X19087412Y11307930D01*
X19068022Y11554306D01*
X19066479Y11564053D01*
X19008786Y11804358D01*
X19005737Y11813743D01*
X18911164Y12042062D01*
X18906683Y12050856D01*
X18780426Y12256888D01*
X18772366Y12262152D01*
X18762154Y12256144D01*
X17821822Y11315812D01*
X17814208Y11301868D01*
X17084156Y11301868D01*
X17085392Y11304132D01*
X17085261Y11305965D01*
X17081010Y11312580D01*
X16138901Y12254689D01*
X16125369Y12262079D01*
X16120092Y12258386D01*
X15992917Y12050856D01*
X15988436Y12042062D01*
X15893863Y11813743D01*
X15890814Y11804358D01*
X15833121Y11564053D01*
X15831578Y11554306D01*
X15812188Y11307930D01*
X14007412Y11307930D01*
X13988022Y11554306D01*
X13986479Y11564053D01*
X13928786Y11804358D01*
X13925737Y11813743D01*
X13831164Y12042062D01*
X13826683Y12050856D01*
X13700426Y12256888D01*
X13692366Y12262152D01*
X13682154Y12256144D01*
X12741822Y11315812D01*
X12734208Y11301868D01*
X12004156Y11301868D01*
X12005392Y11304132D01*
X12005261Y11305965D01*
X12001010Y11312580D01*
X11058901Y12254689D01*
X11045369Y12262079D01*
X11040092Y12258386D01*
X10912917Y12050856D01*
X10908436Y12042062D01*
X10813863Y11813743D01*
X10810814Y11804358D01*
X10753121Y11564053D01*
X10751578Y11554306D01*
X10732188Y11307930D01*
X754000Y11307930D01*
X754000Y12625566D01*
X11410648Y12625566D01*
X11416656Y12615354D01*
X12356988Y11675022D01*
X12370932Y11667408D01*
X12372765Y11667539D01*
X12379380Y11671790D01*
X13321489Y12613899D01*
X13327860Y12625566D01*
X16490648Y12625566D01*
X16496656Y12615354D01*
X17436988Y11675022D01*
X17450932Y11667408D01*
X17452765Y11667539D01*
X17459380Y11671790D01*
X18401489Y12613899D01*
X18407860Y12625566D01*
X21824648Y12625566D01*
X21830656Y12615354D01*
X22770988Y11675022D01*
X22784932Y11667408D01*
X22786765Y11667539D01*
X22793380Y11671790D01*
X23735489Y12613899D01*
X23741860Y12625566D01*
X26904648Y12625566D01*
X26910656Y12615354D01*
X27850988Y11675022D01*
X27864932Y11667408D01*
X27866765Y11667539D01*
X27873380Y11671790D01*
X28815489Y12613899D01*
X28822879Y12627431D01*
X28819186Y12632708D01*
X28611656Y12759883D01*
X28602862Y12764364D01*
X28374543Y12858937D01*
X28365158Y12861986D01*
X28124853Y12919679D01*
X28115106Y12921222D01*
X27868730Y12940612D01*
X27858870Y12940612D01*
X27612494Y12921222D01*
X27602747Y12919679D01*
X27362442Y12861986D01*
X27353057Y12858937D01*
X27124738Y12764364D01*
X27115944Y12759883D01*
X26909912Y12633626D01*
X26904648Y12625566D01*
X23741860Y12625566D01*
X23742879Y12627431D01*
X23739186Y12632708D01*
X23531656Y12759883D01*
X23522862Y12764364D01*
X23294543Y12858937D01*
X23285158Y12861986D01*
X23044853Y12919679D01*
X23035106Y12921222D01*
X22788730Y12940612D01*
X22778870Y12940612D01*
X22532494Y12921222D01*
X22522747Y12919679D01*
X22282442Y12861986D01*
X22273057Y12858937D01*
X22044738Y12764364D01*
X22035944Y12759883D01*
X21829912Y12633626D01*
X21824648Y12625566D01*
X18407860Y12625566D01*
X18408879Y12627431D01*
X18405186Y12632708D01*
X18197656Y12759883D01*
X18188862Y12764364D01*
X17960543Y12858937D01*
X17951158Y12861986D01*
X17710853Y12919679D01*
X17701106Y12921222D01*
X17454730Y12940612D01*
X17444870Y12940612D01*
X17198494Y12921222D01*
X17188747Y12919679D01*
X16948442Y12861986D01*
X16939057Y12858937D01*
X16710738Y12764364D01*
X16701944Y12759883D01*
X16495912Y12633626D01*
X16490648Y12625566D01*
X13327860Y12625566D01*
X13328879Y12627431D01*
X13325186Y12632708D01*
X13117656Y12759883D01*
X13108862Y12764364D01*
X12880543Y12858937D01*
X12871158Y12861986D01*
X12630853Y12919679D01*
X12621106Y12921222D01*
X12374730Y12940612D01*
X12364870Y12940612D01*
X12118494Y12921222D01*
X12108747Y12919679D01*
X11868442Y12861986D01*
X11859057Y12858937D01*
X11630738Y12764364D01*
X11621944Y12759883D01*
X11415912Y12633626D01*
X11410648Y12625566D01*
X754000Y12625566D01*
X754000Y22588011D01*
X15260527Y22588011D01*
X15263444Y22558263D01*
X15265827Y22546226D01*
X15322227Y22359421D01*
X15326902Y22348080D01*
X15418507Y22175796D01*
X15425306Y22165561D01*
X15548632Y22014348D01*
X15557271Y22005649D01*
X15707628Y21881262D01*
X15717799Y21874402D01*
X15889447Y21781592D01*
X15900766Y21776834D01*
X16035492Y21735131D01*
X16049595Y21734925D01*
X16052800Y21741680D01*
X16052800Y22586485D01*
X16051459Y22591052D01*
X16560800Y22591052D01*
X16560800Y21748677D01*
X16564773Y21735146D01*
X16572568Y21734026D01*
X16699098Y21771265D01*
X16710466Y21775858D01*
X16883401Y21866266D01*
X16893663Y21872982D01*
X17045737Y21995253D01*
X17054503Y22003837D01*
X17179938Y22153323D01*
X17186862Y22163434D01*
X17280875Y22334445D01*
X17285703Y22345709D01*
X17344707Y22531712D01*
X17347258Y22543718D01*
X17352068Y22586598D01*
X17351820Y22588011D01*
X19070527Y22588011D01*
X19073444Y22558263D01*
X19075827Y22546226D01*
X19132227Y22359421D01*
X19136902Y22348080D01*
X19228507Y22175796D01*
X19235306Y22165561D01*
X19358632Y22014348D01*
X19367271Y22005649D01*
X19517628Y21881262D01*
X19527799Y21874402D01*
X19699447Y21781592D01*
X19710766Y21776834D01*
X19845492Y21735131D01*
X19859595Y21734925D01*
X19862800Y21741680D01*
X19862800Y22586485D01*
X19861459Y22591052D01*
X20370800Y22591052D01*
X20370800Y21748677D01*
X20374773Y21735146D01*
X20382568Y21734026D01*
X20509098Y21771265D01*
X20520466Y21775858D01*
X20693401Y21866266D01*
X20703663Y21872982D01*
X20855737Y21995253D01*
X20864503Y22003837D01*
X20989938Y22153323D01*
X20996862Y22163434D01*
X21090875Y22334445D01*
X21095703Y22345709D01*
X21154707Y22531712D01*
X21157258Y22543718D01*
X21162068Y22586598D01*
X21161820Y22588011D01*
X22880527Y22588011D01*
X22883444Y22558263D01*
X22885827Y22546226D01*
X22942227Y22359421D01*
X22946902Y22348080D01*
X23038507Y22175796D01*
X23045306Y22165561D01*
X23168632Y22014348D01*
X23177271Y22005649D01*
X23327628Y21881262D01*
X23337799Y21874402D01*
X23509447Y21781592D01*
X23520766Y21776834D01*
X23655492Y21735131D01*
X23669595Y21734925D01*
X23672800Y21741680D01*
X23672800Y22586485D01*
X23671459Y22591052D01*
X24180800Y22591052D01*
X24180800Y21748677D01*
X24184773Y21735146D01*
X24192568Y21734026D01*
X24319098Y21771265D01*
X24330466Y21775858D01*
X24503401Y21866266D01*
X24513663Y21872982D01*
X24665737Y21995253D01*
X24674503Y22003837D01*
X24799938Y22153323D01*
X24806862Y22163434D01*
X24900875Y22334445D01*
X24905703Y22345709D01*
X24964707Y22531712D01*
X24967258Y22543718D01*
X24972068Y22586598D01*
X24969515Y22601128D01*
X24956971Y22604600D01*
X24198915Y22604600D01*
X24183676Y22600125D01*
X24182471Y22598735D01*
X24180800Y22591052D01*
X23671459Y22591052D01*
X23668325Y22601724D01*
X23666935Y22602929D01*
X23659252Y22604600D01*
X22897015Y22604600D01*
X22882588Y22600364D01*
X22880527Y22588011D01*
X21161820Y22588011D01*
X21159515Y22601128D01*
X21146971Y22604600D01*
X20388915Y22604600D01*
X20373676Y22600125D01*
X20372471Y22598735D01*
X20370800Y22591052D01*
X19861459Y22591052D01*
X19858325Y22601724D01*
X19856935Y22602929D01*
X19849252Y22604600D01*
X19087015Y22604600D01*
X19072588Y22600364D01*
X19070527Y22588011D01*
X17351820Y22588011D01*
X17349515Y22601128D01*
X17336971Y22604600D01*
X16578915Y22604600D01*
X16563676Y22600125D01*
X16562471Y22598735D01*
X16560800Y22591052D01*
X16051459Y22591052D01*
X16048325Y22601724D01*
X16046935Y22602929D01*
X16039252Y22604600D01*
X15277015Y22604600D01*
X15262588Y22600364D01*
X15260527Y22588011D01*
X754000Y22588011D01*
X754000Y22949417D01*
X25342362Y22949417D01*
X25351076Y22937897D01*
X25448778Y22866258D01*
X25456697Y22861310D01*
X25679655Y22744006D01*
X25688229Y22740278D01*
X25926086Y22657215D01*
X25935095Y22654801D01*
X26182634Y22607804D01*
X26191891Y22606750D01*
X26443660Y22596857D01*
X26452974Y22597183D01*
X26703428Y22624612D01*
X26712605Y22626313D01*
X26956254Y22690460D01*
X26965074Y22693497D01*
X27196569Y22792955D01*
X27204841Y22797262D01*
X27419086Y22929841D01*
X27426039Y22934892D01*
X27434368Y22947530D01*
X27428304Y22957886D01*
X26399612Y23986578D01*
X26385668Y23994192D01*
X26383835Y23994061D01*
X26377220Y23989810D01*
X25349020Y22961610D01*
X25342362Y22949417D01*
X754000Y22949417D01*
X754000Y23130602D01*
X15261532Y23130602D01*
X15264085Y23116072D01*
X15276629Y23112600D01*
X16034685Y23112600D01*
X16049924Y23117075D01*
X16051129Y23118465D01*
X16052800Y23126148D01*
X16052800Y23968523D01*
X16050746Y23975520D01*
X16560800Y23975520D01*
X16560800Y23130715D01*
X16565275Y23115476D01*
X16566665Y23114271D01*
X16574348Y23112600D01*
X17336585Y23112600D01*
X17351012Y23116836D01*
X17353073Y23129189D01*
X17350156Y23158937D01*
X17347773Y23170975D01*
X17322550Y23254517D01*
X17322009Y23325512D01*
X17359937Y23385529D01*
X17424291Y23415512D01*
X17463750Y23415243D01*
X17490071Y23410886D01*
X17529045Y23404434D01*
X17535862Y23404791D01*
X17535866Y23404791D01*
X17688877Y23412810D01*
X17713578Y23414105D01*
X17720151Y23415916D01*
X17720154Y23415916D01*
X17885149Y23461363D01*
X17891731Y23463176D01*
X18055190Y23549358D01*
X18123523Y23607104D01*
X18127181Y23610195D01*
X18192122Y23638887D01*
X18262266Y23627914D01*
X18288907Y23610727D01*
X18292333Y23607104D01*
X18445167Y23503238D01*
X18451501Y23500705D01*
X18451504Y23500703D01*
X18610402Y23437148D01*
X18610407Y23437147D01*
X18616739Y23434614D01*
X18708518Y23419420D01*
X18792307Y23405549D01*
X18792311Y23405549D01*
X18799045Y23404434D01*
X18805862Y23404791D01*
X18805866Y23404791D01*
X18972535Y23413526D01*
X19041609Y23397117D01*
X19090846Y23345968D01*
X19104614Y23276319D01*
X19099231Y23249601D01*
X19078894Y23185491D01*
X19076342Y23173482D01*
X19071532Y23130602D01*
X19074085Y23116072D01*
X19086629Y23112600D01*
X19844685Y23112600D01*
X19859924Y23117075D01*
X19861129Y23118465D01*
X19862800Y23126148D01*
X19862800Y23968523D01*
X19860746Y23975520D01*
X20370800Y23975520D01*
X20370800Y23130715D01*
X20375275Y23115476D01*
X20376665Y23114271D01*
X20384348Y23112600D01*
X21146585Y23112600D01*
X21161012Y23116836D01*
X21163073Y23129189D01*
X21160156Y23158937D01*
X21157773Y23170975D01*
X21132550Y23254517D01*
X21132009Y23325512D01*
X21169937Y23385529D01*
X21234291Y23415512D01*
X21273750Y23415243D01*
X21300071Y23410886D01*
X21339045Y23404434D01*
X21345862Y23404791D01*
X21345866Y23404791D01*
X21498877Y23412810D01*
X21523578Y23414105D01*
X21530151Y23415916D01*
X21530154Y23415916D01*
X21695149Y23461363D01*
X21701731Y23463176D01*
X21865190Y23549358D01*
X21933523Y23607104D01*
X21937181Y23610195D01*
X22002122Y23638887D01*
X22072266Y23627914D01*
X22098907Y23610727D01*
X22102333Y23607104D01*
X22255167Y23503238D01*
X22261501Y23500705D01*
X22261504Y23500703D01*
X22420402Y23437148D01*
X22420407Y23437147D01*
X22426739Y23434614D01*
X22518518Y23419420D01*
X22602307Y23405549D01*
X22602311Y23405549D01*
X22609045Y23404434D01*
X22615862Y23404791D01*
X22615866Y23404791D01*
X22782535Y23413526D01*
X22851609Y23397117D01*
X22900846Y23345968D01*
X22914614Y23276319D01*
X22909231Y23249601D01*
X22888894Y23185491D01*
X22886342Y23173482D01*
X22881532Y23130602D01*
X22884085Y23116072D01*
X22896629Y23112600D01*
X23654685Y23112600D01*
X23669924Y23117075D01*
X23671129Y23118465D01*
X23672800Y23126148D01*
X23672800Y23968523D01*
X23670746Y23975520D01*
X24180800Y23975520D01*
X24180800Y23130715D01*
X24185275Y23115476D01*
X24186665Y23114271D01*
X24194348Y23112600D01*
X24956585Y23112600D01*
X24971012Y23116836D01*
X24973073Y23129189D01*
X24970156Y23158937D01*
X24967773Y23170971D01*
X24959929Y23196952D01*
X24959388Y23267947D01*
X24991456Y23322466D01*
X26014778Y24345788D01*
X26021156Y24357468D01*
X26751208Y24357468D01*
X26751339Y24355635D01*
X26755590Y24349020D01*
X27786764Y23317846D01*
X27799144Y23311086D01*
X27807485Y23317330D01*
X27933630Y23513444D01*
X27938073Y23521627D01*
X28041555Y23751350D01*
X28044749Y23760125D01*
X28113138Y24002616D01*
X28114996Y24011745D01*
X28146986Y24263201D01*
X28147467Y24269489D01*
X28149717Y24355440D01*
X28149566Y24361749D01*
X28130781Y24614536D01*
X28129405Y24623742D01*
X28073796Y24869494D01*
X28071072Y24878405D01*
X27979751Y25113238D01*
X27975740Y25121647D01*
X27850712Y25340399D01*
X27845501Y25348125D01*
X27808242Y25395388D01*
X27796317Y25403859D01*
X27784783Y25397373D01*
X26758822Y24371412D01*
X26751208Y24357468D01*
X26021156Y24357468D01*
X26022392Y24359732D01*
X26022261Y24361565D01*
X26018010Y24368180D01*
X24988072Y25398118D01*
X24974764Y25405385D01*
X24964725Y25398263D01*
X24954503Y25385973D01*
X24949090Y25378384D01*
X24818383Y25162986D01*
X24814145Y25154669D01*
X24716714Y24922323D01*
X24713753Y24913473D01*
X24651737Y24669281D01*
X24650115Y24660084D01*
X24624873Y24409404D01*
X24624628Y24400079D01*
X24636717Y24148414D01*
X24637853Y24139159D01*
X24666319Y23996054D01*
X24659991Y23925340D01*
X24616437Y23869272D01*
X24549485Y23845653D01*
X24482811Y23860636D01*
X24344153Y23935608D01*
X24332834Y23940366D01*
X24198108Y23982069D01*
X24184005Y23982275D01*
X24180800Y23975520D01*
X23670746Y23975520D01*
X23668827Y23982054D01*
X23661031Y23983175D01*
X23658239Y23982353D01*
X23587243Y23982307D01*
X23527492Y24020652D01*
X23497957Y24085214D01*
X23499697Y24130711D01*
X23506968Y24163238D01*
X23507300Y24169176D01*
X23507300Y24504625D01*
X23492343Y24642306D01*
X23433404Y24817441D01*
X23338231Y24975835D01*
X23211267Y25110096D01*
X23058433Y25213962D01*
X23052099Y25216495D01*
X23052096Y25216497D01*
X22893198Y25280052D01*
X22893193Y25280053D01*
X22886861Y25282586D01*
X22795082Y25297780D01*
X22711293Y25311651D01*
X22711289Y25311651D01*
X22704555Y25312766D01*
X22697738Y25312409D01*
X22697734Y25312409D01*
X22544723Y25304390D01*
X22520022Y25303095D01*
X22513449Y25301284D01*
X22513446Y25301284D01*
X22375186Y25263201D01*
X22341869Y25254024D01*
X22178410Y25167842D01*
X22173194Y25163434D01*
X22173193Y25163433D01*
X22106419Y25107005D01*
X22041478Y25078313D01*
X21971334Y25089286D01*
X21944693Y25106473D01*
X21941267Y25110096D01*
X21788433Y25213962D01*
X21782099Y25216495D01*
X21782096Y25216497D01*
X21623198Y25280052D01*
X21623193Y25280053D01*
X21616861Y25282586D01*
X21525082Y25297780D01*
X21441293Y25311651D01*
X21441289Y25311651D01*
X21434555Y25312766D01*
X21427738Y25312409D01*
X21427734Y25312409D01*
X21274723Y25304390D01*
X21250022Y25303095D01*
X21243449Y25301284D01*
X21243446Y25301284D01*
X21105186Y25263201D01*
X21071869Y25254024D01*
X20908410Y25167842D01*
X20903197Y25163437D01*
X20903193Y25163434D01*
X20772485Y25052977D01*
X20772481Y25052973D01*
X20767271Y25048570D01*
X20655036Y24901772D01*
X20576942Y24734298D01*
X20536632Y24553962D01*
X20536300Y24548024D01*
X20536300Y24212575D01*
X20536669Y24209179D01*
X20536669Y24209178D01*
X20546653Y24117273D01*
X20534125Y24047390D01*
X20485804Y23995375D01*
X20417032Y23977740D01*
X20391725Y23982017D01*
X20374005Y23982275D01*
X20370800Y23975520D01*
X19860746Y23975520D01*
X19858827Y23982054D01*
X19851031Y23983175D01*
X19848239Y23982353D01*
X19777243Y23982307D01*
X19717492Y24020652D01*
X19687957Y24085214D01*
X19689697Y24130711D01*
X19696968Y24163238D01*
X19697300Y24169176D01*
X19697300Y24504625D01*
X19682343Y24642306D01*
X19623404Y24817441D01*
X19528231Y24975835D01*
X19401267Y25110096D01*
X19248433Y25213962D01*
X19242099Y25216495D01*
X19242096Y25216497D01*
X19083198Y25280052D01*
X19083193Y25280053D01*
X19076861Y25282586D01*
X18985082Y25297780D01*
X18901293Y25311651D01*
X18901289Y25311651D01*
X18894555Y25312766D01*
X18887738Y25312409D01*
X18887734Y25312409D01*
X18734723Y25304390D01*
X18710022Y25303095D01*
X18703449Y25301284D01*
X18703446Y25301284D01*
X18565186Y25263201D01*
X18531869Y25254024D01*
X18368410Y25167842D01*
X18363194Y25163434D01*
X18363193Y25163433D01*
X18296419Y25107005D01*
X18231478Y25078313D01*
X18161334Y25089286D01*
X18134693Y25106473D01*
X18131267Y25110096D01*
X17978433Y25213962D01*
X17972099Y25216495D01*
X17972096Y25216497D01*
X17813198Y25280052D01*
X17813193Y25280053D01*
X17806861Y25282586D01*
X17715082Y25297780D01*
X17631293Y25311651D01*
X17631289Y25311651D01*
X17624555Y25312766D01*
X17617738Y25312409D01*
X17617734Y25312409D01*
X17464723Y25304390D01*
X17440022Y25303095D01*
X17433449Y25301284D01*
X17433446Y25301284D01*
X17295186Y25263201D01*
X17261869Y25254024D01*
X17098410Y25167842D01*
X17093197Y25163437D01*
X17093193Y25163434D01*
X16962485Y25052977D01*
X16962481Y25052973D01*
X16957271Y25048570D01*
X16845036Y24901772D01*
X16766942Y24734298D01*
X16726632Y24553962D01*
X16726300Y24548024D01*
X16726300Y24212575D01*
X16726669Y24209179D01*
X16726669Y24209178D01*
X16736653Y24117273D01*
X16724125Y24047390D01*
X16675804Y23995375D01*
X16607032Y23977740D01*
X16581725Y23982017D01*
X16564005Y23982275D01*
X16560800Y23975520D01*
X16050746Y23975520D01*
X16048827Y23982054D01*
X16041032Y23983174D01*
X15914502Y23945935D01*
X15903134Y23941342D01*
X15730199Y23850934D01*
X15719937Y23844218D01*
X15567863Y23721947D01*
X15559097Y23713363D01*
X15433662Y23563877D01*
X15426738Y23553766D01*
X15332725Y23382755D01*
X15327897Y23371491D01*
X15268893Y23185488D01*
X15266342Y23173482D01*
X15261532Y23130602D01*
X754000Y23130602D01*
X754000Y23949417D01*
X12512362Y23949417D01*
X12521076Y23937897D01*
X12618778Y23866258D01*
X12626697Y23861310D01*
X12849655Y23744006D01*
X12858229Y23740278D01*
X13096086Y23657215D01*
X13105095Y23654801D01*
X13352634Y23607804D01*
X13361891Y23606750D01*
X13613660Y23596857D01*
X13622974Y23597183D01*
X13873428Y23624612D01*
X13882605Y23626313D01*
X14126254Y23690460D01*
X14135074Y23693497D01*
X14366569Y23792955D01*
X14374841Y23797262D01*
X14589086Y23929841D01*
X14596039Y23934892D01*
X14604368Y23947530D01*
X14598304Y23957886D01*
X13569612Y24986578D01*
X13555668Y24994192D01*
X13553835Y24994061D01*
X13547220Y24989810D01*
X12519020Y23961610D01*
X12512362Y23949417D01*
X754000Y23949417D01*
X754000Y25400079D01*
X11794628Y25400079D01*
X11806717Y25148414D01*
X11807853Y25139159D01*
X11857010Y24892036D01*
X11859498Y24883064D01*
X11944638Y24645926D01*
X11948432Y24637404D01*
X12067690Y24415457D01*
X12072699Y24407594D01*
X12136195Y24322562D01*
X12147455Y24314112D01*
X12159873Y24320883D01*
X13184778Y25345788D01*
X13191156Y25357468D01*
X13921208Y25357468D01*
X13921339Y25355635D01*
X13925590Y25349020D01*
X14956764Y24317846D01*
X14969144Y24311086D01*
X14977485Y24317330D01*
X15103630Y24513444D01*
X15108073Y24521627D01*
X15211555Y24751350D01*
X15214749Y24760125D01*
X15283138Y25002616D01*
X15284996Y25011745D01*
X15316986Y25263201D01*
X15317467Y25269489D01*
X15319717Y25355440D01*
X15319566Y25361749D01*
X15300781Y25614536D01*
X15299405Y25623742D01*
X15266344Y25769848D01*
X25339965Y25769848D01*
X25344538Y25760072D01*
X26373988Y24730622D01*
X26387932Y24723008D01*
X26389765Y24723139D01*
X26396380Y24727390D01*
X27425269Y25756279D01*
X27431653Y25767969D01*
X27422241Y25780079D01*
X27285428Y25874990D01*
X27277399Y25879719D01*
X27051419Y25991160D01*
X27042786Y25994648D01*
X26802815Y26071463D01*
X26793754Y26073639D01*
X26545067Y26114140D01*
X26535780Y26114952D01*
X26283848Y26118251D01*
X26274538Y26117681D01*
X26024886Y26083705D01*
X26015759Y26081764D01*
X25773883Y26011264D01*
X25765130Y26007992D01*
X25536327Y25902512D01*
X25528171Y25897992D01*
X25349102Y25780589D01*
X25339965Y25769848D01*
X15266344Y25769848D01*
X15243796Y25869494D01*
X15241072Y25878405D01*
X15149751Y26113238D01*
X15145740Y26121647D01*
X15020712Y26340399D01*
X15015501Y26348125D01*
X14978242Y26395388D01*
X14966317Y26403859D01*
X14954783Y26397373D01*
X13928822Y25371412D01*
X13921208Y25357468D01*
X13191156Y25357468D01*
X13192392Y25359732D01*
X13192261Y25361565D01*
X13188010Y25368180D01*
X12158072Y26398118D01*
X12144764Y26405385D01*
X12134725Y26398263D01*
X12124503Y26385973D01*
X12119090Y26378384D01*
X11988383Y26162986D01*
X11984145Y26154669D01*
X11886714Y25922323D01*
X11883753Y25913473D01*
X11821737Y25669281D01*
X11820115Y25660084D01*
X11794873Y25409404D01*
X11794628Y25400079D01*
X754000Y25400079D01*
X754000Y26769848D01*
X12509965Y26769848D01*
X12514538Y26760072D01*
X13543988Y25730622D01*
X13557932Y25723008D01*
X13559765Y25723139D01*
X13566380Y25727390D01*
X14595269Y26756279D01*
X14601653Y26767969D01*
X14592241Y26780079D01*
X14455428Y26874990D01*
X14447399Y26879719D01*
X14221419Y26991160D01*
X14212786Y26994648D01*
X13972815Y27071463D01*
X13963754Y27073639D01*
X13715067Y27114140D01*
X13705780Y27114952D01*
X13453848Y27118251D01*
X13444538Y27117681D01*
X13194886Y27083705D01*
X13185759Y27081764D01*
X12943883Y27011264D01*
X12935130Y27007992D01*
X12706327Y26902512D01*
X12698171Y26897992D01*
X12519102Y26780589D01*
X12509965Y26769848D01*
X754000Y26769848D01*
X754000Y29600000D01*
X774002Y29668121D01*
X827658Y29714614D01*
X880000Y29726000D01*
X39760000Y29726000D01*
X39828121Y29705998D01*
G37*
%TD.AperFunction*%
%TD*%
M02*
