%TF.GenerationSoftware,KiCad,Pcbnew,(5.99.0-10394-g2e15de97e0)*%
%TF.CreationDate,2021-05-18T12:17:20+02:00*%
%TF.ProjectId,SATABAL01A,53415441-4241-44c3-9031-412e6b696361,rev?*%
%TF.SameCoordinates,Original*%
%TF.FileFunction,Legend,Top*%
%TF.FilePolarity,Positive*%
%FSLAX46Y46*%
G04 Gerber Fmt 4.6, Leading zero omitted, Abs format (unit mm)*
G04 Created by KiCad (PCBNEW (5.99.0-10394-g2e15de97e0)) date 2021-05-18 12:17:20*
%MOMM*%
%LPD*%
G01*
G04 APERTURE LIST*
%ADD10C,0.300000*%
%ADD11C,0.150000*%
%ADD12C,0.120000*%
G04 APERTURE END LIST*
D10*
X15222638Y27882114D02*
X15160733Y27820209D01*
X14975019Y27758304D01*
X14851209Y27758304D01*
X14665495Y27820209D01*
X14541685Y27944019D01*
X14479780Y28067828D01*
X14417876Y28315447D01*
X14417876Y28501161D01*
X14479780Y28748780D01*
X14541685Y28872590D01*
X14665495Y28996400D01*
X14851209Y29058304D01*
X14975019Y29058304D01*
X15160733Y28996400D01*
X15222638Y28934495D01*
X15779780Y27758304D02*
X15779780Y29058304D01*
X16336923Y27758304D02*
X16336923Y28439257D01*
X16275019Y28563066D01*
X16151209Y28624971D01*
X15965495Y28624971D01*
X15841685Y28563066D01*
X15779780Y28501161D01*
X17636923Y27758304D02*
X16894066Y27758304D01*
X17265495Y27758304D02*
X17265495Y29058304D01*
X17141685Y28872590D01*
X17017876Y28748780D01*
X16894066Y28686876D01*
X24595238Y2177314D02*
X24533333Y2115409D01*
X24347619Y2053504D01*
X24223809Y2053504D01*
X24038095Y2115409D01*
X23914285Y2239219D01*
X23852380Y2363028D01*
X23790476Y2610647D01*
X23790476Y2796361D01*
X23852380Y3043980D01*
X23914285Y3167790D01*
X24038095Y3291600D01*
X24223809Y3353504D01*
X24347619Y3353504D01*
X24533333Y3291600D01*
X24595238Y3229695D01*
X25152380Y2053504D02*
X25152380Y3353504D01*
X25709523Y2053504D02*
X25709523Y2734457D01*
X25647619Y2858266D01*
X25523809Y2920171D01*
X25338095Y2920171D01*
X25214285Y2858266D01*
X25152380Y2796361D01*
X26266666Y3229695D02*
X26328571Y3291600D01*
X26452380Y3353504D01*
X26761904Y3353504D01*
X26885714Y3291600D01*
X26947619Y3229695D01*
X27009523Y3105885D01*
X27009523Y2982076D01*
X26947619Y2796361D01*
X26204761Y2053504D01*
X27009523Y2053504D01*
X13978038Y2177314D02*
X13916133Y2115409D01*
X13730419Y2053504D01*
X13606609Y2053504D01*
X13420895Y2115409D01*
X13297085Y2239219D01*
X13235180Y2363028D01*
X13173276Y2610647D01*
X13173276Y2796361D01*
X13235180Y3043980D01*
X13297085Y3167790D01*
X13420895Y3291600D01*
X13606609Y3353504D01*
X13730419Y3353504D01*
X13916133Y3291600D01*
X13978038Y3229695D01*
X14535180Y2053504D02*
X14535180Y3353504D01*
X15092323Y2053504D02*
X15092323Y2734457D01*
X15030419Y2858266D01*
X14906609Y2920171D01*
X14720895Y2920171D01*
X14597085Y2858266D01*
X14535180Y2796361D01*
X16392323Y2053504D02*
X15649466Y2053504D01*
X16020895Y2053504D02*
X16020895Y3353504D01*
X15897085Y3167790D01*
X15773276Y3043980D01*
X15649466Y2982076D01*
X30328428Y9678142D02*
X31195095Y9925761D01*
X30576047Y10173380D01*
X31195095Y10421000D01*
X30328428Y10668619D01*
X30328428Y11040047D02*
X31195095Y11287666D01*
X30576047Y11535285D01*
X31195095Y11782904D01*
X30328428Y12030523D01*
X30328428Y12401952D02*
X31195095Y12649571D01*
X30576047Y12897190D01*
X31195095Y13144809D01*
X30328428Y13392428D01*
X31071285Y13887666D02*
X31133190Y13949571D01*
X31195095Y13887666D01*
X31133190Y13825761D01*
X31071285Y13887666D01*
X31195095Y13887666D01*
X31195095Y14506714D02*
X30328428Y14506714D01*
X30452238Y14506714D02*
X30390333Y14568619D01*
X30328428Y14692428D01*
X30328428Y14878142D01*
X30390333Y15001952D01*
X30514142Y15063857D01*
X31195095Y15063857D01*
X30514142Y15063857D02*
X30390333Y15125761D01*
X30328428Y15249571D01*
X30328428Y15435285D01*
X30390333Y15559095D01*
X30514142Y15621000D01*
X31195095Y15621000D01*
X31195095Y16425761D02*
X31133190Y16301952D01*
X31009380Y16240047D01*
X29895095Y16240047D01*
X31195095Y17478142D02*
X30514142Y17478142D01*
X30390333Y17416238D01*
X30328428Y17292428D01*
X30328428Y17044809D01*
X30390333Y16921000D01*
X31133190Y17478142D02*
X31195095Y17354333D01*
X31195095Y17044809D01*
X31133190Y16921000D01*
X31009380Y16859095D01*
X30885571Y16859095D01*
X30761761Y16921000D01*
X30699857Y17044809D01*
X30699857Y17354333D01*
X30637952Y17478142D01*
X31195095Y18097190D02*
X29895095Y18097190D01*
X30390333Y18097190D02*
X30328428Y18221000D01*
X30328428Y18468619D01*
X30390333Y18592428D01*
X30452238Y18654333D01*
X30576047Y18716238D01*
X30947476Y18716238D01*
X31071285Y18654333D01*
X31133190Y18592428D01*
X31195095Y18468619D01*
X31195095Y18221000D01*
X31133190Y18097190D01*
X31071285Y19273380D02*
X31133190Y19335285D01*
X31195095Y19273380D01*
X31133190Y19211476D01*
X31071285Y19273380D01*
X31195095Y19273380D01*
X31133190Y20449571D02*
X31195095Y20325761D01*
X31195095Y20078142D01*
X31133190Y19954333D01*
X31071285Y19892428D01*
X30947476Y19830523D01*
X30576047Y19830523D01*
X30452238Y19892428D01*
X30390333Y19954333D01*
X30328428Y20078142D01*
X30328428Y20325761D01*
X30390333Y20449571D01*
X30328428Y20882904D02*
X30328428Y21563857D01*
X31195095Y20882904D01*
X31195095Y21563857D01*
X33633495Y9967819D02*
X32333495Y9967819D01*
X33633495Y10710676D02*
X32890638Y10153533D01*
X32333495Y10710676D02*
X33076352Y9967819D01*
X33633495Y11824961D02*
X32952542Y11824961D01*
X32828733Y11763057D01*
X32766828Y11639247D01*
X32766828Y11391628D01*
X32828733Y11267819D01*
X33571590Y11824961D02*
X33633495Y11701152D01*
X33633495Y11391628D01*
X33571590Y11267819D01*
X33447780Y11205914D01*
X33323971Y11205914D01*
X33200161Y11267819D01*
X33138257Y11391628D01*
X33138257Y11701152D01*
X33076352Y11824961D01*
X33633495Y12444009D02*
X32333495Y12444009D01*
X33138257Y12567819D02*
X33633495Y12939247D01*
X32766828Y12939247D02*
X33262066Y12444009D01*
X33633495Y13682104D02*
X33571590Y13558295D01*
X33447780Y13496390D01*
X32333495Y13496390D01*
X33633495Y14177342D02*
X32766828Y14177342D01*
X32333495Y14177342D02*
X32395400Y14115438D01*
X32457304Y14177342D01*
X32395400Y14239247D01*
X32333495Y14177342D01*
X32457304Y14177342D01*
X33633495Y14796390D02*
X32333495Y14796390D01*
X33138257Y14920200D02*
X33633495Y15291628D01*
X32766828Y15291628D02*
X33262066Y14796390D01*
X32457304Y16777342D02*
X32395400Y16839247D01*
X32333495Y16963057D01*
X32333495Y17272580D01*
X32395400Y17396390D01*
X32457304Y17458295D01*
X32581114Y17520200D01*
X32704923Y17520200D01*
X32890638Y17458295D01*
X33633495Y16715438D01*
X33633495Y17520200D01*
X32333495Y18324961D02*
X32333495Y18448771D01*
X32395400Y18572580D01*
X32457304Y18634485D01*
X32581114Y18696390D01*
X32828733Y18758295D01*
X33138257Y18758295D01*
X33385876Y18696390D01*
X33509685Y18634485D01*
X33571590Y18572580D01*
X33633495Y18448771D01*
X33633495Y18324961D01*
X33571590Y18201152D01*
X33509685Y18139247D01*
X33385876Y18077342D01*
X33138257Y18015438D01*
X32828733Y18015438D01*
X32581114Y18077342D01*
X32457304Y18139247D01*
X32395400Y18201152D01*
X32333495Y18324961D01*
X32457304Y19253533D02*
X32395400Y19315438D01*
X32333495Y19439247D01*
X32333495Y19748771D01*
X32395400Y19872580D01*
X32457304Y19934485D01*
X32581114Y19996390D01*
X32704923Y19996390D01*
X32890638Y19934485D01*
X33633495Y19191628D01*
X33633495Y19996390D01*
X33633495Y21234485D02*
X33633495Y20491628D01*
X33633495Y20863057D02*
X32333495Y20863057D01*
X32519209Y20739247D01*
X32643019Y20615438D01*
X32704923Y20491628D01*
X23249038Y27882114D02*
X23187133Y27820209D01*
X23001419Y27758304D01*
X22877609Y27758304D01*
X22691895Y27820209D01*
X22568085Y27944019D01*
X22506180Y28067828D01*
X22444276Y28315447D01*
X22444276Y28501161D01*
X22506180Y28748780D01*
X22568085Y28872590D01*
X22691895Y28996400D01*
X22877609Y29058304D01*
X23001419Y29058304D01*
X23187133Y28996400D01*
X23249038Y28934495D01*
X23806180Y27758304D02*
X23806180Y29058304D01*
X24363323Y27758304D02*
X24363323Y28439257D01*
X24301419Y28563066D01*
X24177609Y28624971D01*
X23991895Y28624971D01*
X23868085Y28563066D01*
X23806180Y28501161D01*
X24920466Y28934495D02*
X24982371Y28996400D01*
X25106180Y29058304D01*
X25415704Y29058304D01*
X25539514Y28996400D01*
X25601419Y28934495D01*
X25663323Y28810685D01*
X25663323Y28686876D01*
X25601419Y28501161D01*
X24858561Y27758304D01*
X25663323Y27758304D01*
X14064457Y16537857D02*
X14278742Y16466428D01*
X14635885Y16466428D01*
X14778742Y16537857D01*
X14850171Y16609285D01*
X14921600Y16752142D01*
X14921600Y16895000D01*
X14850171Y17037857D01*
X14778742Y17109285D01*
X14635885Y17180714D01*
X14350171Y17252142D01*
X14207314Y17323571D01*
X14135885Y17395000D01*
X14064457Y17537857D01*
X14064457Y17680714D01*
X14135885Y17823571D01*
X14207314Y17895000D01*
X14350171Y17966428D01*
X14707314Y17966428D01*
X14921600Y17895000D01*
X15493028Y16895000D02*
X16207314Y16895000D01*
X15350171Y16466428D02*
X15850171Y17966428D01*
X16350171Y16466428D01*
X16635885Y17966428D02*
X17493028Y17966428D01*
X17064457Y16466428D02*
X17064457Y17966428D01*
X17921600Y16895000D02*
X18635885Y16895000D01*
X17778742Y16466428D02*
X18278742Y17966428D01*
X18778742Y16466428D01*
X19778742Y17252142D02*
X19993028Y17180714D01*
X20064457Y17109285D01*
X20135885Y16966428D01*
X20135885Y16752142D01*
X20064457Y16609285D01*
X19993028Y16537857D01*
X19850171Y16466428D01*
X19278742Y16466428D01*
X19278742Y17966428D01*
X19778742Y17966428D01*
X19921600Y17895000D01*
X19993028Y17823571D01*
X20064457Y17680714D01*
X20064457Y17537857D01*
X19993028Y17395000D01*
X19921600Y17323571D01*
X19778742Y17252142D01*
X19278742Y17252142D01*
X20707314Y16895000D02*
X21421600Y16895000D01*
X20564457Y16466428D02*
X21064457Y17966428D01*
X21564457Y16466428D01*
X22778742Y16466428D02*
X22064457Y16466428D01*
X22064457Y17966428D01*
X23564457Y17966428D02*
X23707314Y17966428D01*
X23850171Y17895000D01*
X23921600Y17823571D01*
X23993028Y17680714D01*
X24064457Y17395000D01*
X24064457Y17037857D01*
X23993028Y16752142D01*
X23921600Y16609285D01*
X23850171Y16537857D01*
X23707314Y16466428D01*
X23564457Y16466428D01*
X23421600Y16537857D01*
X23350171Y16609285D01*
X23278742Y16752142D01*
X23207314Y17037857D01*
X23207314Y17395000D01*
X23278742Y17680714D01*
X23350171Y17823571D01*
X23421600Y17895000D01*
X23564457Y17966428D01*
X25493028Y16466428D02*
X24635885Y16466428D01*
X25064457Y16466428D02*
X25064457Y17966428D01*
X24921600Y17752142D01*
X24778742Y17609285D01*
X24635885Y17537857D01*
X26064457Y16895000D02*
X26778742Y16895000D01*
X25921600Y16466428D02*
X26421600Y17966428D01*
X26921600Y16466428D01*
D11*
%TO.C,J1*%
X29410066Y24144219D02*
X29410066Y23429933D01*
X29362447Y23287076D01*
X29267209Y23191838D01*
X29124352Y23144219D01*
X29029114Y23144219D01*
X30410066Y23144219D02*
X29838638Y23144219D01*
X30124352Y23144219D02*
X30124352Y24144219D01*
X30029114Y24001361D01*
X29933876Y23906123D01*
X29838638Y23858504D01*
%TO.C,J2*%
X14576466Y14060619D02*
X14576466Y13346333D01*
X14528847Y13203476D01*
X14433609Y13108238D01*
X14290752Y13060619D01*
X14195514Y13060619D01*
X15005038Y13965380D02*
X15052657Y14013000D01*
X15147895Y14060619D01*
X15385990Y14060619D01*
X15481228Y14013000D01*
X15528847Y13965380D01*
X15576466Y13870142D01*
X15576466Y13774904D01*
X15528847Y13632047D01*
X14957419Y13060619D01*
X15576466Y13060619D01*
%TO.C,J3*%
X24990466Y14060619D02*
X24990466Y13346333D01*
X24942847Y13203476D01*
X24847609Y13108238D01*
X24704752Y13060619D01*
X24609514Y13060619D01*
X25371419Y14060619D02*
X25990466Y14060619D01*
X25657133Y13679666D01*
X25799990Y13679666D01*
X25895228Y13632047D01*
X25942847Y13584428D01*
X25990466Y13489190D01*
X25990466Y13251095D01*
X25942847Y13155857D01*
X25895228Y13108238D01*
X25799990Y13060619D01*
X25514276Y13060619D01*
X25419038Y13108238D01*
X25371419Y13155857D01*
D12*
%TO.C,J1*%
X11816800Y21858600D02*
X11816800Y26858600D01*
X11816800Y26858600D02*
X28416800Y26858600D01*
X28416800Y21858600D02*
X11816800Y21858600D01*
X28416800Y26858600D02*
X28416800Y21858600D01*
%TO.C,J2*%
X11554800Y10213000D02*
X11554800Y7313000D01*
X13459800Y12118000D02*
X16359800Y12118000D01*
X13459800Y5408000D02*
X16359800Y5408000D01*
X18264800Y10213000D02*
X18264800Y7313000D01*
%TO.C,J3*%
X23873800Y12118000D02*
X26773800Y12118000D01*
X28678800Y10213000D02*
X28678800Y7313000D01*
X21968800Y10213000D02*
X21968800Y7313000D01*
X23873800Y5408000D02*
X26773800Y5408000D01*
%TD*%
M02*
