%TF.GenerationSoftware,KiCad,Pcbnew,(5.99.0-10394-g2e15de97e0)*%
%TF.CreationDate,2021-05-18T12:17:20+02:00*%
%TF.ProjectId,SATABAL01A,53415441-4241-44c3-9031-412e6b696361,rev?*%
%TF.SameCoordinates,Original*%
%TF.FileFunction,Copper,L2,Bot*%
%TF.FilePolarity,Positive*%
%FSLAX46Y46*%
G04 Gerber Fmt 4.6, Leading zero omitted, Abs format (unit mm)*
G04 Created by KiCad (PCBNEW (5.99.0-10394-g2e15de97e0)) date 2021-05-18 12:17:20*
%MOMM*%
%LPD*%
G01*
G04 APERTURE LIST*
%TA.AperFunction,ComponentPad*%
%ADD10O,1.100000X1.300000*%
%TD*%
%TA.AperFunction,ComponentPad*%
%ADD11C,2.500000*%
%TD*%
%TA.AperFunction,ComponentPad*%
%ADD12C,2.050000*%
%TD*%
%TA.AperFunction,ComponentPad*%
%ADD13C,2.250000*%
%TD*%
%TA.AperFunction,ComponentPad*%
%ADD14C,6.000000*%
%TD*%
%TA.AperFunction,SMDPad,CuDef*%
%ADD15R,0.760000X1.400000*%
%TD*%
%TA.AperFunction,Conductor*%
%ADD16C,0.600000*%
%TD*%
%TA.AperFunction,Conductor*%
%ADD17C,0.850000*%
%TD*%
G04 APERTURE END LIST*
D10*
%TO.P,J1,1,1*%
%TO.N,GND*%
X23926800Y22858600D03*
%TO.P,J1,2,2*%
%TO.N,/IN1N*%
X22656800Y24358600D03*
%TO.P,J1,3,3*%
%TO.N,/IN1P*%
X21386800Y24358600D03*
%TO.P,J1,4,4*%
%TO.N,GND*%
X20116800Y22858600D03*
%TO.P,J1,5,5*%
%TO.N,/IN2N*%
X18846800Y24358600D03*
%TO.P,J1,6,6*%
%TO.N,/IN2P*%
X17576800Y24358600D03*
%TO.P,J1,7,7*%
%TO.N,GND*%
X16306800Y22858600D03*
D11*
%TO.P,J1,8,4*%
X13556800Y25358600D03*
%TO.P,J1,9,7*%
X26386800Y24358600D03*
%TD*%
D12*
%TO.P,J2,1,In*%
%TO.N,/OUT2*%
X14909800Y8763000D03*
D13*
%TO.P,J2,2,Ext*%
%TO.N,GND*%
X17449800Y6223000D03*
X17449800Y11303000D03*
X12369800Y11303000D03*
X12369800Y6223000D03*
%TD*%
D14*
%TO.P,H4,1,1*%
%TO.N,GND*%
X35560000Y25400000D03*
%TD*%
D12*
%TO.P,J3,1,In*%
%TO.N,/OUT1*%
X25323800Y8763000D03*
D13*
%TO.P,J3,2,Ext*%
%TO.N,GND*%
X27863800Y6223000D03*
X22783800Y6223000D03*
X22783800Y11303000D03*
X27863800Y11303000D03*
%TD*%
D14*
%TO.P,H3,1,1*%
%TO.N,GND*%
X35560000Y5080000D03*
%TD*%
%TO.P,H2,1,1*%
%TO.N,GND*%
X5080000Y25400000D03*
%TD*%
%TO.P,H1,1,1*%
%TO.N,GND*%
X5080000Y5080000D03*
%TD*%
D15*
%TO.P,T2,1,AA*%
%TO.N,/IN2P*%
X14986000Y18924000D03*
%TO.P,T2,2,AB*%
%TO.N,/IN2N*%
X17526000Y18924000D03*
%TO.P,T2,3,SA*%
%TO.N,GND*%
X17526000Y15494000D03*
%TO.P,T2,4,SC*%
%TO.N,unconnected-(T2-Pad4)*%
X16256000Y15494000D03*
%TO.P,T2,5,SB*%
%TO.N,/OUT2*%
X14986000Y15494000D03*
%TD*%
%TO.P,T1,1,AA*%
%TO.N,/IN1P*%
X23545800Y18910800D03*
%TO.P,T1,2,AB*%
%TO.N,/IN1N*%
X26085800Y18910800D03*
%TO.P,T1,3,SA*%
%TO.N,GND*%
X26085800Y15480800D03*
%TO.P,T1,4,SC*%
%TO.N,unconnected-(T1-Pad4)*%
X24815800Y15480800D03*
%TO.P,T1,5,SB*%
%TO.N,/OUT1*%
X23545800Y15480800D03*
%TD*%
D16*
%TO.N,/IN2P*%
X17576800Y21514800D02*
X17576800Y24358600D01*
X17576800Y21514800D02*
X14986000Y18924000D01*
%TO.N,/IN2N*%
X18846800Y21259800D02*
X17526000Y19939000D01*
X17526000Y19939000D02*
X17526000Y18924000D01*
X18846800Y21259800D02*
X18846800Y24358600D01*
%TO.N,/IN1P*%
X21386800Y22123400D02*
X23545800Y19964400D01*
X23545800Y19964400D02*
X23545800Y18910800D01*
X21386800Y24358600D02*
X21386800Y22123400D01*
%TO.N,/IN1N*%
X22656800Y22199600D02*
X24879300Y19977100D01*
X25361900Y19977100D02*
X24879300Y19977100D01*
X26085800Y18910800D02*
X26085800Y19253200D01*
X26085800Y19253200D02*
X25361900Y19977100D01*
X22656800Y24358600D02*
X22656800Y22199600D01*
D17*
%TO.N,/OUT2*%
X14986000Y15494000D02*
X14986000Y8839200D01*
X14986000Y8839200D02*
X14909800Y8763000D01*
%TO.N,/OUT1*%
X25323800Y12217400D02*
X25323800Y8763000D01*
X23545800Y15480800D02*
X23545800Y13995400D01*
X23545800Y13995400D02*
X25323800Y12217400D01*
%TD*%
%TA.AperFunction,Conductor*%
%TO.N,GND*%
G36*
X39828121Y29705998D02*
G01*
X39874614Y29652342D01*
X39886000Y29600000D01*
X39886000Y880000D01*
X39865998Y811879D01*
X39812342Y765386D01*
X39760000Y754000D01*
X880000Y754000D01*
X811879Y774002D01*
X765386Y827658D01*
X754000Y880000D01*
X754000Y4898569D01*
X11410721Y4898569D01*
X11414414Y4893292D01*
X11621944Y4766117D01*
X11630738Y4761636D01*
X11859057Y4667063D01*
X11868442Y4664014D01*
X12108747Y4606321D01*
X12118494Y4604778D01*
X12364870Y4585388D01*
X12374730Y4585388D01*
X12621106Y4604778D01*
X12630853Y4606321D01*
X12871158Y4664014D01*
X12880543Y4667063D01*
X13108862Y4761636D01*
X13117656Y4766117D01*
X13323688Y4892374D01*
X13327734Y4898569D01*
X16490721Y4898569D01*
X16494414Y4893292D01*
X16701944Y4766117D01*
X16710738Y4761636D01*
X16939057Y4667063D01*
X16948442Y4664014D01*
X17188747Y4606321D01*
X17198494Y4604778D01*
X17444870Y4585388D01*
X17454730Y4585388D01*
X17701106Y4604778D01*
X17710853Y4606321D01*
X17951158Y4664014D01*
X17960543Y4667063D01*
X18188862Y4761636D01*
X18197656Y4766117D01*
X18403688Y4892374D01*
X18407734Y4898569D01*
X21824721Y4898569D01*
X21828414Y4893292D01*
X22035944Y4766117D01*
X22044738Y4761636D01*
X22273057Y4667063D01*
X22282442Y4664014D01*
X22522747Y4606321D01*
X22532494Y4604778D01*
X22778870Y4585388D01*
X22788730Y4585388D01*
X23035106Y4604778D01*
X23044853Y4606321D01*
X23285158Y4664014D01*
X23294543Y4667063D01*
X23522862Y4761636D01*
X23531656Y4766117D01*
X23737688Y4892374D01*
X23741734Y4898569D01*
X26904721Y4898569D01*
X26908414Y4893292D01*
X27115944Y4766117D01*
X27124738Y4761636D01*
X27353057Y4667063D01*
X27362442Y4664014D01*
X27602747Y4606321D01*
X27612494Y4604778D01*
X27858870Y4585388D01*
X27868730Y4585388D01*
X28115106Y4604778D01*
X28124853Y4606321D01*
X28365158Y4664014D01*
X28374543Y4667063D01*
X28602862Y4761636D01*
X28611656Y4766117D01*
X28817688Y4892374D01*
X28822952Y4900434D01*
X28816944Y4910646D01*
X27876612Y5850978D01*
X27862668Y5858592D01*
X27860835Y5858461D01*
X27854220Y5854210D01*
X26912111Y4912101D01*
X26904721Y4898569D01*
X23741734Y4898569D01*
X23742952Y4900434D01*
X23736944Y4910646D01*
X22796612Y5850978D01*
X22782668Y5858592D01*
X22780835Y5858461D01*
X22774220Y5854210D01*
X21832111Y4912101D01*
X21824721Y4898569D01*
X18407734Y4898569D01*
X18408952Y4900434D01*
X18402944Y4910646D01*
X17462612Y5850978D01*
X17448668Y5858592D01*
X17446835Y5858461D01*
X17440220Y5854210D01*
X16498111Y4912101D01*
X16490721Y4898569D01*
X13327734Y4898569D01*
X13328952Y4900434D01*
X13322944Y4910646D01*
X12382612Y5850978D01*
X12368668Y5858592D01*
X12366835Y5858461D01*
X12360220Y5854210D01*
X11418111Y4912101D01*
X11410721Y4898569D01*
X754000Y4898569D01*
X754000Y6227930D01*
X10732188Y6227930D01*
X10732188Y6218070D01*
X10751578Y5971694D01*
X10753121Y5961947D01*
X10810814Y5721642D01*
X10813863Y5712257D01*
X10908436Y5483938D01*
X10912917Y5475144D01*
X11039174Y5269112D01*
X11047234Y5263848D01*
X11057446Y5269856D01*
X11997778Y6210188D01*
X12004156Y6221868D01*
X12734208Y6221868D01*
X12734339Y6220035D01*
X12738590Y6213420D01*
X13680699Y5271311D01*
X13694231Y5263921D01*
X13699508Y5267614D01*
X13826683Y5475144D01*
X13831164Y5483938D01*
X13925737Y5712257D01*
X13928786Y5721642D01*
X13986479Y5961947D01*
X13988022Y5971694D01*
X14007412Y6218070D01*
X14007412Y6227930D01*
X15812188Y6227930D01*
X15812188Y6218070D01*
X15831578Y5971694D01*
X15833121Y5961947D01*
X15890814Y5721642D01*
X15893863Y5712257D01*
X15988436Y5483938D01*
X15992917Y5475144D01*
X16119174Y5269112D01*
X16127234Y5263848D01*
X16137446Y5269856D01*
X17077778Y6210188D01*
X17084156Y6221868D01*
X17814208Y6221868D01*
X17814339Y6220035D01*
X17818590Y6213420D01*
X18760699Y5271311D01*
X18774231Y5263921D01*
X18779508Y5267614D01*
X18906683Y5475144D01*
X18911164Y5483938D01*
X19005737Y5712257D01*
X19008786Y5721642D01*
X19066479Y5961947D01*
X19068022Y5971694D01*
X19087412Y6218070D01*
X19087412Y6227930D01*
X21146188Y6227930D01*
X21146188Y6218070D01*
X21165578Y5971694D01*
X21167121Y5961947D01*
X21224814Y5721642D01*
X21227863Y5712257D01*
X21322436Y5483938D01*
X21326917Y5475144D01*
X21453174Y5269112D01*
X21461234Y5263848D01*
X21471446Y5269856D01*
X22411778Y6210188D01*
X22418156Y6221868D01*
X23148208Y6221868D01*
X23148339Y6220035D01*
X23152590Y6213420D01*
X24094699Y5271311D01*
X24108231Y5263921D01*
X24113508Y5267614D01*
X24240683Y5475144D01*
X24245164Y5483938D01*
X24339737Y5712257D01*
X24342786Y5721642D01*
X24400479Y5961947D01*
X24402022Y5971694D01*
X24421412Y6218070D01*
X24421412Y6227930D01*
X26226188Y6227930D01*
X26226188Y6218070D01*
X26245578Y5971694D01*
X26247121Y5961947D01*
X26304814Y5721642D01*
X26307863Y5712257D01*
X26402436Y5483938D01*
X26406917Y5475144D01*
X26533174Y5269112D01*
X26541234Y5263848D01*
X26551446Y5269856D01*
X27491778Y6210188D01*
X27498156Y6221868D01*
X28228208Y6221868D01*
X28228339Y6220035D01*
X28232590Y6213420D01*
X29174699Y5271311D01*
X29188231Y5263921D01*
X29193508Y5267614D01*
X29320683Y5475144D01*
X29325164Y5483938D01*
X29419737Y5712257D01*
X29422786Y5721642D01*
X29480479Y5961947D01*
X29482022Y5971694D01*
X29501412Y6218070D01*
X29501412Y6227930D01*
X29482022Y6474306D01*
X29480479Y6484053D01*
X29422786Y6724358D01*
X29419737Y6733743D01*
X29325164Y6962062D01*
X29320683Y6970856D01*
X29194426Y7176888D01*
X29186366Y7182152D01*
X29176154Y7176144D01*
X28235822Y6235812D01*
X28228208Y6221868D01*
X27498156Y6221868D01*
X27499392Y6224132D01*
X27499261Y6225965D01*
X27495010Y6232580D01*
X26552901Y7174689D01*
X26539369Y7182079D01*
X26534092Y7178386D01*
X26406917Y6970856D01*
X26402436Y6962062D01*
X26307863Y6733743D01*
X26304814Y6724358D01*
X26247121Y6484053D01*
X26245578Y6474306D01*
X26226188Y6227930D01*
X24421412Y6227930D01*
X24402022Y6474306D01*
X24400479Y6484053D01*
X24342786Y6724358D01*
X24339737Y6733743D01*
X24245164Y6962062D01*
X24240683Y6970856D01*
X24114426Y7176888D01*
X24106366Y7182152D01*
X24096154Y7176144D01*
X23155822Y6235812D01*
X23148208Y6221868D01*
X22418156Y6221868D01*
X22419392Y6224132D01*
X22419261Y6225965D01*
X22415010Y6232580D01*
X21472901Y7174689D01*
X21459369Y7182079D01*
X21454092Y7178386D01*
X21326917Y6970856D01*
X21322436Y6962062D01*
X21227863Y6733743D01*
X21224814Y6724358D01*
X21167121Y6484053D01*
X21165578Y6474306D01*
X21146188Y6227930D01*
X19087412Y6227930D01*
X19068022Y6474306D01*
X19066479Y6484053D01*
X19008786Y6724358D01*
X19005737Y6733743D01*
X18911164Y6962062D01*
X18906683Y6970856D01*
X18780426Y7176888D01*
X18772366Y7182152D01*
X18762154Y7176144D01*
X17821822Y6235812D01*
X17814208Y6221868D01*
X17084156Y6221868D01*
X17085392Y6224132D01*
X17085261Y6225965D01*
X17081010Y6232580D01*
X16138901Y7174689D01*
X16125369Y7182079D01*
X16120092Y7178386D01*
X15992917Y6970856D01*
X15988436Y6962062D01*
X15893863Y6733743D01*
X15890814Y6724358D01*
X15833121Y6484053D01*
X15831578Y6474306D01*
X15812188Y6227930D01*
X14007412Y6227930D01*
X13988022Y6474306D01*
X13986479Y6484053D01*
X13928786Y6724358D01*
X13925737Y6733743D01*
X13831164Y6962062D01*
X13826683Y6970856D01*
X13700426Y7176888D01*
X13692366Y7182152D01*
X13682154Y7176144D01*
X12741822Y6235812D01*
X12734208Y6221868D01*
X12004156Y6221868D01*
X12005392Y6224132D01*
X12005261Y6225965D01*
X12001010Y6232580D01*
X11058901Y7174689D01*
X11045369Y7182079D01*
X11040092Y7178386D01*
X10912917Y6970856D01*
X10908436Y6962062D01*
X10813863Y6733743D01*
X10810814Y6724358D01*
X10753121Y6484053D01*
X10751578Y6474306D01*
X10732188Y6227930D01*
X754000Y6227930D01*
X754000Y7545566D01*
X11410648Y7545566D01*
X11416656Y7535354D01*
X12356988Y6595022D01*
X12370932Y6587408D01*
X12372765Y6587539D01*
X12379380Y6591790D01*
X13321489Y7533899D01*
X13328879Y7547431D01*
X13325186Y7552708D01*
X13117656Y7679883D01*
X13108862Y7684364D01*
X12880543Y7778937D01*
X12871158Y7781986D01*
X12630853Y7839679D01*
X12621106Y7841222D01*
X12374730Y7860612D01*
X12364870Y7860612D01*
X12118494Y7841222D01*
X12108747Y7839679D01*
X11868442Y7781986D01*
X11859057Y7778937D01*
X11630738Y7684364D01*
X11621944Y7679883D01*
X11415912Y7553626D01*
X11410648Y7545566D01*
X754000Y7545566D01*
X754000Y8763000D01*
X13579300Y8763000D01*
X13599513Y8531961D01*
X13659539Y8307942D01*
X13661861Y8302961D01*
X13661862Y8302960D01*
X13755227Y8102737D01*
X13755230Y8102732D01*
X13757553Y8097750D01*
X13890578Y7907771D01*
X14054571Y7743778D01*
X14059079Y7740621D01*
X14059082Y7740619D01*
X14138395Y7685084D01*
X14244550Y7610753D01*
X14249532Y7608430D01*
X14249537Y7608427D01*
X14409364Y7533899D01*
X14454742Y7512739D01*
X14460050Y7511317D01*
X14460052Y7511316D01*
X14529509Y7492705D01*
X14678761Y7452713D01*
X14909800Y7432500D01*
X15140839Y7452713D01*
X15290091Y7492705D01*
X15359548Y7511316D01*
X15359550Y7511317D01*
X15364858Y7512739D01*
X15410236Y7533899D01*
X15435256Y7545566D01*
X16490648Y7545566D01*
X16496656Y7535354D01*
X17436988Y6595022D01*
X17450932Y6587408D01*
X17452765Y6587539D01*
X17459380Y6591790D01*
X18401489Y7533899D01*
X18407860Y7545566D01*
X21824648Y7545566D01*
X21830656Y7535354D01*
X22770988Y6595022D01*
X22784932Y6587408D01*
X22786765Y6587539D01*
X22793380Y6591790D01*
X23735489Y7533899D01*
X23742879Y7547431D01*
X23739186Y7552708D01*
X23531656Y7679883D01*
X23522862Y7684364D01*
X23294543Y7778937D01*
X23285158Y7781986D01*
X23044853Y7839679D01*
X23035106Y7841222D01*
X22788730Y7860612D01*
X22778870Y7860612D01*
X22532494Y7841222D01*
X22522747Y7839679D01*
X22282442Y7781986D01*
X22273057Y7778937D01*
X22044738Y7684364D01*
X22035944Y7679883D01*
X21829912Y7553626D01*
X21824648Y7545566D01*
X18407860Y7545566D01*
X18408879Y7547431D01*
X18405186Y7552708D01*
X18197656Y7679883D01*
X18188862Y7684364D01*
X17960543Y7778937D01*
X17951158Y7781986D01*
X17710853Y7839679D01*
X17701106Y7841222D01*
X17454730Y7860612D01*
X17444870Y7860612D01*
X17198494Y7841222D01*
X17188747Y7839679D01*
X16948442Y7781986D01*
X16939057Y7778937D01*
X16710738Y7684364D01*
X16701944Y7679883D01*
X16495912Y7553626D01*
X16490648Y7545566D01*
X15435256Y7545566D01*
X15570063Y7608427D01*
X15570068Y7608430D01*
X15575050Y7610753D01*
X15681205Y7685084D01*
X15760518Y7740619D01*
X15760521Y7740621D01*
X15765029Y7743778D01*
X15929022Y7907771D01*
X16062047Y8097750D01*
X16064370Y8102732D01*
X16064373Y8102737D01*
X16157738Y8302960D01*
X16157739Y8302961D01*
X16160061Y8307942D01*
X16220087Y8531961D01*
X16240300Y8763000D01*
X16220087Y8994039D01*
X16160061Y9218058D01*
X16157738Y9223040D01*
X16064373Y9423263D01*
X16064370Y9423268D01*
X16062047Y9428250D01*
X15929022Y9618229D01*
X15765029Y9782222D01*
X15760523Y9785377D01*
X15756506Y9788748D01*
X15717181Y9847858D01*
X15711500Y9885267D01*
X15711500Y9978569D01*
X16490721Y9978569D01*
X16494414Y9973292D01*
X16701944Y9846117D01*
X16710738Y9841636D01*
X16939057Y9747063D01*
X16948442Y9744014D01*
X17188747Y9686321D01*
X17198494Y9684778D01*
X17444870Y9665388D01*
X17454730Y9665388D01*
X17701106Y9684778D01*
X17710853Y9686321D01*
X17951158Y9744014D01*
X17960543Y9747063D01*
X18188862Y9841636D01*
X18197656Y9846117D01*
X18403688Y9972374D01*
X18407734Y9978569D01*
X21824721Y9978569D01*
X21828414Y9973292D01*
X22035944Y9846117D01*
X22044738Y9841636D01*
X22273057Y9747063D01*
X22282442Y9744014D01*
X22522747Y9686321D01*
X22532494Y9684778D01*
X22778870Y9665388D01*
X22788730Y9665388D01*
X23035106Y9684778D01*
X23044853Y9686321D01*
X23285158Y9744014D01*
X23294543Y9747063D01*
X23522862Y9841636D01*
X23531656Y9846117D01*
X23737688Y9972374D01*
X23742952Y9980434D01*
X23736944Y9990646D01*
X22796612Y10930978D01*
X22782668Y10938592D01*
X22780835Y10938461D01*
X22774220Y10934210D01*
X21832111Y9992101D01*
X21824721Y9978569D01*
X18407734Y9978569D01*
X18408952Y9980434D01*
X18402944Y9990646D01*
X17462612Y10930978D01*
X17448668Y10938592D01*
X17446835Y10938461D01*
X17440220Y10934210D01*
X16498111Y9992101D01*
X16490721Y9978569D01*
X15711500Y9978569D01*
X15711500Y10599076D01*
X15731502Y10667197D01*
X15785158Y10713690D01*
X15855432Y10723794D01*
X15920012Y10694300D01*
X15953909Y10647294D01*
X15988436Y10563938D01*
X15992917Y10555144D01*
X16119174Y10349112D01*
X16127234Y10343848D01*
X16137446Y10349856D01*
X17077778Y11290188D01*
X17084156Y11301868D01*
X17814208Y11301868D01*
X17814339Y11300035D01*
X17818590Y11293420D01*
X18760699Y10351311D01*
X18774231Y10343921D01*
X18779508Y10347614D01*
X18906683Y10555144D01*
X18911164Y10563938D01*
X19005737Y10792257D01*
X19008786Y10801642D01*
X19066479Y11041947D01*
X19068022Y11051694D01*
X19087412Y11298070D01*
X19087412Y11307930D01*
X21146188Y11307930D01*
X21146188Y11298070D01*
X21165578Y11051694D01*
X21167121Y11041947D01*
X21224814Y10801642D01*
X21227863Y10792257D01*
X21322436Y10563938D01*
X21326917Y10555144D01*
X21453174Y10349112D01*
X21461234Y10343848D01*
X21471446Y10349856D01*
X22411778Y11290188D01*
X22419392Y11304132D01*
X22419261Y11305965D01*
X22415010Y11312580D01*
X21472901Y12254689D01*
X21459369Y12262079D01*
X21454092Y12258386D01*
X21326917Y12050856D01*
X21322436Y12042062D01*
X21227863Y11813743D01*
X21224814Y11804358D01*
X21167121Y11564053D01*
X21165578Y11554306D01*
X21146188Y11307930D01*
X19087412Y11307930D01*
X19068022Y11554306D01*
X19066479Y11564053D01*
X19008786Y11804358D01*
X19005737Y11813743D01*
X18911164Y12042062D01*
X18906683Y12050856D01*
X18780426Y12256888D01*
X18772366Y12262152D01*
X18762154Y12256144D01*
X17821822Y11315812D01*
X17814208Y11301868D01*
X17084156Y11301868D01*
X17085392Y11304132D01*
X17085261Y11305965D01*
X17081010Y11312580D01*
X16138901Y12254689D01*
X16125369Y12262079D01*
X16120092Y12258386D01*
X15992917Y12050856D01*
X15988436Y12042062D01*
X15953909Y11958706D01*
X15909360Y11903425D01*
X15841997Y11881004D01*
X15773206Y11898562D01*
X15724828Y11950524D01*
X15711500Y12006924D01*
X15711500Y12625566D01*
X16490648Y12625566D01*
X16496656Y12615354D01*
X17436988Y11675022D01*
X17450932Y11667408D01*
X17452765Y11667539D01*
X17459380Y11671790D01*
X18401489Y12613899D01*
X18407860Y12625566D01*
X21824648Y12625566D01*
X21830656Y12615354D01*
X24094699Y10351311D01*
X24108231Y10343921D01*
X24113508Y10347614D01*
X24240683Y10555144D01*
X24245164Y10563938D01*
X24339737Y10792257D01*
X24342786Y10801642D01*
X24349781Y10830777D01*
X24385133Y10892346D01*
X24448160Y10925029D01*
X24518851Y10918448D01*
X24574762Y10874694D01*
X24598300Y10801363D01*
X24598300Y9938651D01*
X24578298Y9870530D01*
X24544571Y9835438D01*
X24473082Y9785381D01*
X24473079Y9785379D01*
X24468571Y9782222D01*
X24304578Y9618229D01*
X24171553Y9428250D01*
X24169230Y9423268D01*
X24169227Y9423263D01*
X24075862Y9223040D01*
X24073539Y9218058D01*
X24013513Y8994039D01*
X23993300Y8763000D01*
X24013513Y8531961D01*
X24073539Y8307942D01*
X24075861Y8302961D01*
X24075862Y8302960D01*
X24169227Y8102737D01*
X24169230Y8102732D01*
X24171553Y8097750D01*
X24304578Y7907771D01*
X24468571Y7743778D01*
X24473079Y7740621D01*
X24473082Y7740619D01*
X24552395Y7685084D01*
X24658550Y7610753D01*
X24663532Y7608430D01*
X24663537Y7608427D01*
X24823364Y7533899D01*
X24868742Y7512739D01*
X24874050Y7511317D01*
X24874052Y7511316D01*
X24943509Y7492705D01*
X25092761Y7452713D01*
X25323800Y7432500D01*
X25554839Y7452713D01*
X25704091Y7492705D01*
X25773548Y7511316D01*
X25773550Y7511317D01*
X25778858Y7512739D01*
X25824236Y7533899D01*
X25849256Y7545566D01*
X26904648Y7545566D01*
X26910656Y7535354D01*
X27850988Y6595022D01*
X27864932Y6587408D01*
X27866765Y6587539D01*
X27873380Y6591790D01*
X28815489Y7533899D01*
X28822879Y7547431D01*
X28819186Y7552708D01*
X28611656Y7679883D01*
X28602862Y7684364D01*
X28374543Y7778937D01*
X28365158Y7781986D01*
X28124853Y7839679D01*
X28115106Y7841222D01*
X27868730Y7860612D01*
X27858870Y7860612D01*
X27612494Y7841222D01*
X27602747Y7839679D01*
X27362442Y7781986D01*
X27353057Y7778937D01*
X27124738Y7684364D01*
X27115944Y7679883D01*
X26909912Y7553626D01*
X26904648Y7545566D01*
X25849256Y7545566D01*
X25984063Y7608427D01*
X25984068Y7608430D01*
X25989050Y7610753D01*
X26095205Y7685084D01*
X26174518Y7740619D01*
X26174521Y7740621D01*
X26179029Y7743778D01*
X26343022Y7907771D01*
X26476047Y8097750D01*
X26478370Y8102732D01*
X26478373Y8102737D01*
X26571738Y8302960D01*
X26571739Y8302961D01*
X26574061Y8307942D01*
X26634087Y8531961D01*
X26654300Y8763000D01*
X26634087Y8994039D01*
X26574061Y9218058D01*
X26571738Y9223040D01*
X26478373Y9423263D01*
X26478370Y9423268D01*
X26476047Y9428250D01*
X26343022Y9618229D01*
X26179029Y9782222D01*
X26174521Y9785379D01*
X26174518Y9785381D01*
X26103029Y9835438D01*
X26058701Y9890895D01*
X26049300Y9938651D01*
X26049300Y9978569D01*
X26904721Y9978569D01*
X26908414Y9973292D01*
X27115944Y9846117D01*
X27124738Y9841636D01*
X27353057Y9747063D01*
X27362442Y9744014D01*
X27602747Y9686321D01*
X27612494Y9684778D01*
X27858870Y9665388D01*
X27868730Y9665388D01*
X28115106Y9684778D01*
X28124853Y9686321D01*
X28365158Y9744014D01*
X28374543Y9747063D01*
X28602862Y9841636D01*
X28611656Y9846117D01*
X28817688Y9972374D01*
X28822952Y9980434D01*
X28816944Y9990646D01*
X27876612Y10930978D01*
X27862668Y10938592D01*
X27860835Y10938461D01*
X27854220Y10934210D01*
X26912111Y9992101D01*
X26904721Y9978569D01*
X26049300Y9978569D01*
X26049300Y10801363D01*
X26069302Y10869484D01*
X26122958Y10915977D01*
X26193232Y10926081D01*
X26257812Y10896587D01*
X26297819Y10830777D01*
X26304814Y10801642D01*
X26307863Y10792257D01*
X26402436Y10563938D01*
X26406917Y10555144D01*
X26533174Y10349112D01*
X26541234Y10343848D01*
X26551446Y10349856D01*
X27491778Y11290188D01*
X27498156Y11301868D01*
X28228208Y11301868D01*
X28228339Y11300035D01*
X28232590Y11293420D01*
X29174699Y10351311D01*
X29188231Y10343921D01*
X29193508Y10347614D01*
X29320683Y10555144D01*
X29325164Y10563938D01*
X29419737Y10792257D01*
X29422786Y10801642D01*
X29480479Y11041947D01*
X29482022Y11051694D01*
X29501412Y11298070D01*
X29501412Y11307930D01*
X29482022Y11554306D01*
X29480479Y11564053D01*
X29422786Y11804358D01*
X29419737Y11813743D01*
X29325164Y12042062D01*
X29320683Y12050856D01*
X29194426Y12256888D01*
X29186366Y12262152D01*
X29176154Y12256144D01*
X28235822Y11315812D01*
X28228208Y11301868D01*
X27498156Y11301868D01*
X27499392Y11304132D01*
X27499261Y11305965D01*
X27495010Y11312580D01*
X26552901Y12254689D01*
X26539369Y12262079D01*
X26534092Y12258386D01*
X26406917Y12050856D01*
X26402436Y12042062D01*
X26307863Y11813743D01*
X26304814Y11804358D01*
X26297819Y11775223D01*
X26262467Y11713654D01*
X26199440Y11680971D01*
X26128749Y11687552D01*
X26072838Y11731306D01*
X26049300Y11804637D01*
X26049300Y12152434D01*
X26050733Y12171384D01*
X26052755Y12184672D01*
X26052755Y12184676D01*
X26053855Y12191906D01*
X26049715Y12242806D01*
X26049300Y12253021D01*
X26049300Y12260285D01*
X26046223Y12286674D01*
X26045791Y12291043D01*
X26040733Y12353239D01*
X26040732Y12353242D01*
X26040139Y12360538D01*
X26037882Y12367506D01*
X26036809Y12372875D01*
X26035555Y12378180D01*
X26034707Y12385451D01*
X26010896Y12451049D01*
X26009481Y12455173D01*
X25990255Y12514523D01*
X25990254Y12514526D01*
X25987997Y12521492D01*
X25984197Y12527754D01*
X25981919Y12532729D01*
X25979480Y12537600D01*
X25976980Y12544488D01*
X25938741Y12602813D01*
X25936400Y12606523D01*
X25924844Y12625566D01*
X26904648Y12625566D01*
X26910656Y12615354D01*
X27850988Y11675022D01*
X27864932Y11667408D01*
X27866765Y11667539D01*
X27873380Y11671790D01*
X28815489Y12613899D01*
X28822879Y12627431D01*
X28819186Y12632708D01*
X28611656Y12759883D01*
X28602862Y12764364D01*
X28374543Y12858937D01*
X28365158Y12861986D01*
X28124853Y12919679D01*
X28115106Y12921222D01*
X27868730Y12940612D01*
X27858870Y12940612D01*
X27612494Y12921222D01*
X27602747Y12919679D01*
X27362442Y12861986D01*
X27353057Y12858937D01*
X27124738Y12764364D01*
X27115944Y12759883D01*
X26909912Y12633626D01*
X26904648Y12625566D01*
X25924844Y12625566D01*
X25903141Y12661332D01*
X25903138Y12661336D01*
X25900226Y12666135D01*
X25893790Y12673421D01*
X25893795Y12673426D01*
X25890474Y12677171D01*
X25888226Y12679860D01*
X25884214Y12685979D01*
X25828836Y12738439D01*
X25826395Y12740816D01*
X24308205Y14259007D01*
X24274179Y14321319D01*
X24271300Y14348102D01*
X24271300Y14404489D01*
X24291302Y14472610D01*
X24344958Y14519103D01*
X24421877Y14528069D01*
X24429731Y14526507D01*
X24429733Y14526507D01*
X24435800Y14525300D01*
X25195800Y14525300D01*
X25195800Y14522837D01*
X25254887Y14511637D01*
X25303493Y14467587D01*
X25313230Y14452435D01*
X25324912Y14438953D01*
X25421640Y14355138D01*
X25436648Y14345493D01*
X25553075Y14292323D01*
X25570188Y14287298D01*
X25701354Y14268439D01*
X25710295Y14267800D01*
X25813685Y14267800D01*
X25828924Y14272275D01*
X25830129Y14273665D01*
X25831800Y14281348D01*
X25831800Y15213252D01*
X26339800Y15213252D01*
X26339800Y14285915D01*
X26344275Y14270676D01*
X26345665Y14269471D01*
X26353348Y14267800D01*
X26463543Y14267800D01*
X26468050Y14267961D01*
X26532069Y14272540D01*
X26545291Y14274926D01*
X26670258Y14311619D01*
X26686492Y14319033D01*
X26794160Y14388226D01*
X26807647Y14399912D01*
X26891462Y14496640D01*
X26901107Y14511648D01*
X26954277Y14628075D01*
X26959302Y14645188D01*
X26978161Y14776354D01*
X26978800Y14785295D01*
X26978800Y15208685D01*
X26974325Y15223924D01*
X26972935Y15225129D01*
X26965252Y15226800D01*
X26357915Y15226800D01*
X26342676Y15222325D01*
X26341471Y15220935D01*
X26339800Y15213252D01*
X25831800Y15213252D01*
X25831800Y16675685D01*
X25830459Y16680252D01*
X26339800Y16680252D01*
X26339800Y15752915D01*
X26344275Y15737676D01*
X26345665Y15736471D01*
X26353348Y15734800D01*
X26960685Y15734800D01*
X26975924Y15739275D01*
X26977129Y15740665D01*
X26978800Y15748348D01*
X26978800Y16178543D01*
X26978639Y16183050D01*
X26974060Y16247069D01*
X26971674Y16260291D01*
X26934981Y16385258D01*
X26927567Y16401492D01*
X26858374Y16509160D01*
X26846688Y16522647D01*
X26749960Y16606462D01*
X26734952Y16616107D01*
X26618525Y16669277D01*
X26601412Y16674302D01*
X26470246Y16693161D01*
X26461305Y16693800D01*
X26357915Y16693800D01*
X26342676Y16689325D01*
X26341471Y16687935D01*
X26339800Y16680252D01*
X25830459Y16680252D01*
X25827325Y16690924D01*
X25825935Y16692129D01*
X25818252Y16693800D01*
X25708057Y16693800D01*
X25703550Y16693639D01*
X25639531Y16689060D01*
X25626309Y16686674D01*
X25501342Y16649981D01*
X25485108Y16642567D01*
X25377440Y16573374D01*
X25363953Y16561688D01*
X25292833Y16479610D01*
X25233107Y16441226D01*
X25195800Y16437719D01*
X25195800Y16436300D01*
X24435800Y16436300D01*
X24338024Y16416851D01*
X24327708Y16409958D01*
X24292570Y16386480D01*
X24224817Y16365266D01*
X24156350Y16384050D01*
X24138383Y16397604D01*
X24131614Y16406567D01*
X24036159Y16465670D01*
X24024687Y16467814D01*
X24024686Y16467815D01*
X23931525Y16485230D01*
X23931523Y16485230D01*
X23925800Y16486300D01*
X23165800Y16486300D01*
X23164359Y16486233D01*
X23164342Y16486233D01*
X23150242Y16485581D01*
X23137612Y16484997D01*
X23029627Y16454272D01*
X22940033Y16386614D01*
X22880930Y16291159D01*
X22878786Y16279687D01*
X22878785Y16279686D01*
X22861678Y16188173D01*
X22860300Y16180800D01*
X22860300Y15747288D01*
X22856689Y15717340D01*
X22820902Y15571091D01*
X22820300Y15561388D01*
X22820300Y14060366D01*
X22818867Y14041417D01*
X22815745Y14020894D01*
X22816338Y14013602D01*
X22816338Y14013599D01*
X22819885Y13969994D01*
X22820300Y13959779D01*
X22820300Y13952515D01*
X22820724Y13948880D01*
X22823376Y13926137D01*
X22823809Y13921761D01*
X22829461Y13852262D01*
X22831718Y13845294D01*
X22832791Y13839925D01*
X22834045Y13834621D01*
X22834893Y13827349D01*
X22837390Y13820471D01*
X22858686Y13761800D01*
X22860114Y13757640D01*
X22879347Y13698269D01*
X22879349Y13698264D01*
X22881603Y13691307D01*
X22885397Y13685055D01*
X22887673Y13680083D01*
X22890123Y13675189D01*
X22892620Y13668312D01*
X22896631Y13662195D01*
X22896632Y13662192D01*
X22930850Y13610002D01*
X22933197Y13606282D01*
X22966461Y13551464D01*
X22966466Y13551457D01*
X22969374Y13546665D01*
X22973089Y13542459D01*
X22975810Y13539378D01*
X22975805Y13539374D01*
X22979130Y13535624D01*
X22981375Y13532938D01*
X22985386Y13526821D01*
X22990694Y13521793D01*
X22990697Y13521789D01*
X23040746Y13474378D01*
X23043188Y13472000D01*
X23464106Y13051082D01*
X23498132Y12988770D01*
X23493067Y12917955D01*
X23450520Y12861119D01*
X23384000Y12836308D01*
X23326792Y12845579D01*
X23294549Y12858935D01*
X23285158Y12861986D01*
X23044853Y12919679D01*
X23035106Y12921222D01*
X22788730Y12940612D01*
X22778870Y12940612D01*
X22532494Y12921222D01*
X22522747Y12919679D01*
X22282442Y12861986D01*
X22273057Y12858937D01*
X22044738Y12764364D01*
X22035944Y12759883D01*
X21829912Y12633626D01*
X21824648Y12625566D01*
X18407860Y12625566D01*
X18408879Y12627431D01*
X18405186Y12632708D01*
X18197656Y12759883D01*
X18188862Y12764364D01*
X17960543Y12858937D01*
X17951158Y12861986D01*
X17710853Y12919679D01*
X17701106Y12921222D01*
X17454730Y12940612D01*
X17444870Y12940612D01*
X17198494Y12921222D01*
X17188747Y12919679D01*
X16948442Y12861986D01*
X16939057Y12858937D01*
X16710738Y12764364D01*
X16701944Y12759883D01*
X16495912Y12633626D01*
X16490648Y12625566D01*
X15711500Y12625566D01*
X15711500Y14417689D01*
X15731502Y14485810D01*
X15785158Y14532303D01*
X15862077Y14541269D01*
X15869931Y14539707D01*
X15869933Y14539707D01*
X15876000Y14538500D01*
X16636000Y14538500D01*
X16636000Y14536037D01*
X16695087Y14524837D01*
X16743693Y14480787D01*
X16753430Y14465635D01*
X16765112Y14452153D01*
X16861840Y14368338D01*
X16876848Y14358693D01*
X16993275Y14305523D01*
X17010388Y14300498D01*
X17141554Y14281639D01*
X17150495Y14281000D01*
X17253885Y14281000D01*
X17269124Y14285475D01*
X17270329Y14286865D01*
X17272000Y14294548D01*
X17272000Y15226452D01*
X17780000Y15226452D01*
X17780000Y14299115D01*
X17784475Y14283876D01*
X17785865Y14282671D01*
X17793548Y14281000D01*
X17903743Y14281000D01*
X17908250Y14281161D01*
X17972269Y14285740D01*
X17985491Y14288126D01*
X18110458Y14324819D01*
X18126692Y14332233D01*
X18234360Y14401426D01*
X18247847Y14413112D01*
X18331662Y14509840D01*
X18341307Y14524848D01*
X18394477Y14641275D01*
X18399502Y14658388D01*
X18418361Y14789554D01*
X18419000Y14798495D01*
X18419000Y15221885D01*
X18414525Y15237124D01*
X18413135Y15238329D01*
X18405452Y15240000D01*
X17798115Y15240000D01*
X17782876Y15235525D01*
X17781671Y15234135D01*
X17780000Y15226452D01*
X17272000Y15226452D01*
X17272000Y16688885D01*
X17270659Y16693452D01*
X17780000Y16693452D01*
X17780000Y15766115D01*
X17784475Y15750876D01*
X17785865Y15749671D01*
X17793548Y15748000D01*
X18400885Y15748000D01*
X18416124Y15752475D01*
X18417329Y15753865D01*
X18419000Y15761548D01*
X18419000Y16191743D01*
X18418839Y16196250D01*
X18414260Y16260269D01*
X18411874Y16273491D01*
X18375181Y16398458D01*
X18367767Y16414692D01*
X18298574Y16522360D01*
X18286888Y16535847D01*
X18190160Y16619662D01*
X18175152Y16629307D01*
X18058725Y16682477D01*
X18041612Y16687502D01*
X17910446Y16706361D01*
X17901505Y16707000D01*
X17798115Y16707000D01*
X17782876Y16702525D01*
X17781671Y16701135D01*
X17780000Y16693452D01*
X17270659Y16693452D01*
X17267525Y16704124D01*
X17266135Y16705329D01*
X17258452Y16707000D01*
X17148257Y16707000D01*
X17143750Y16706839D01*
X17079731Y16702260D01*
X17066509Y16699874D01*
X16941542Y16663181D01*
X16925308Y16655767D01*
X16817640Y16586574D01*
X16804153Y16574888D01*
X16733033Y16492810D01*
X16673307Y16454426D01*
X16636000Y16450919D01*
X16636000Y16449500D01*
X15876000Y16449500D01*
X15778224Y16430051D01*
X15758469Y16416851D01*
X15732770Y16399680D01*
X15665017Y16378466D01*
X15596550Y16397250D01*
X15578583Y16410804D01*
X15571814Y16419767D01*
X15476359Y16478870D01*
X15464887Y16481014D01*
X15464886Y16481015D01*
X15371725Y16498430D01*
X15371723Y16498430D01*
X15366000Y16499500D01*
X14606000Y16499500D01*
X14604559Y16499433D01*
X14604542Y16499433D01*
X14590442Y16498781D01*
X14577812Y16498197D01*
X14469827Y16467472D01*
X14380233Y16399814D01*
X14321130Y16304359D01*
X14318986Y16292887D01*
X14318985Y16292886D01*
X14312892Y16260291D01*
X14300500Y16194000D01*
X14300500Y15760488D01*
X14296889Y15730540D01*
X14261102Y15584291D01*
X14260500Y15574588D01*
X14260500Y9992007D01*
X14240498Y9923886D01*
X14206771Y9888794D01*
X14059082Y9785381D01*
X14059079Y9785379D01*
X14054571Y9782222D01*
X13890578Y9618229D01*
X13757553Y9428250D01*
X13755230Y9423268D01*
X13755227Y9423263D01*
X13661862Y9223040D01*
X13659539Y9218058D01*
X13599513Y8994039D01*
X13579300Y8763000D01*
X754000Y8763000D01*
X754000Y9978569D01*
X11410721Y9978569D01*
X11414414Y9973292D01*
X11621944Y9846117D01*
X11630738Y9841636D01*
X11859057Y9747063D01*
X11868442Y9744014D01*
X12108747Y9686321D01*
X12118494Y9684778D01*
X12364870Y9665388D01*
X12374730Y9665388D01*
X12621106Y9684778D01*
X12630853Y9686321D01*
X12871158Y9744014D01*
X12880543Y9747063D01*
X13108862Y9841636D01*
X13117656Y9846117D01*
X13323688Y9972374D01*
X13328952Y9980434D01*
X13322944Y9990646D01*
X12382612Y10930978D01*
X12368668Y10938592D01*
X12366835Y10938461D01*
X12360220Y10934210D01*
X11418111Y9992101D01*
X11410721Y9978569D01*
X754000Y9978569D01*
X754000Y11307930D01*
X10732188Y11307930D01*
X10732188Y11298070D01*
X10751578Y11051694D01*
X10753121Y11041947D01*
X10810814Y10801642D01*
X10813863Y10792257D01*
X10908436Y10563938D01*
X10912917Y10555144D01*
X11039174Y10349112D01*
X11047234Y10343848D01*
X11057446Y10349856D01*
X11997778Y11290188D01*
X12004156Y11301868D01*
X12734208Y11301868D01*
X12734339Y11300035D01*
X12738590Y11293420D01*
X13680699Y10351311D01*
X13694231Y10343921D01*
X13699508Y10347614D01*
X13826683Y10555144D01*
X13831164Y10563938D01*
X13925737Y10792257D01*
X13928786Y10801642D01*
X13986479Y11041947D01*
X13988022Y11051694D01*
X14007412Y11298070D01*
X14007412Y11307930D01*
X13988022Y11554306D01*
X13986479Y11564053D01*
X13928786Y11804358D01*
X13925737Y11813743D01*
X13831164Y12042062D01*
X13826683Y12050856D01*
X13700426Y12256888D01*
X13692366Y12262152D01*
X13682154Y12256144D01*
X12741822Y11315812D01*
X12734208Y11301868D01*
X12004156Y11301868D01*
X12005392Y11304132D01*
X12005261Y11305965D01*
X12001010Y11312580D01*
X11058901Y12254689D01*
X11045369Y12262079D01*
X11040092Y12258386D01*
X10912917Y12050856D01*
X10908436Y12042062D01*
X10813863Y11813743D01*
X10810814Y11804358D01*
X10753121Y11564053D01*
X10751578Y11554306D01*
X10732188Y11307930D01*
X754000Y11307930D01*
X754000Y12625566D01*
X11410648Y12625566D01*
X11416656Y12615354D01*
X12356988Y11675022D01*
X12370932Y11667408D01*
X12372765Y11667539D01*
X12379380Y11671790D01*
X13321489Y12613899D01*
X13328879Y12627431D01*
X13325186Y12632708D01*
X13117656Y12759883D01*
X13108862Y12764364D01*
X12880543Y12858937D01*
X12871158Y12861986D01*
X12630853Y12919679D01*
X12621106Y12921222D01*
X12374730Y12940612D01*
X12364870Y12940612D01*
X12118494Y12921222D01*
X12108747Y12919679D01*
X11868442Y12861986D01*
X11859057Y12858937D01*
X11630738Y12764364D01*
X11621944Y12759883D01*
X11415912Y12633626D01*
X11410648Y12625566D01*
X754000Y12625566D01*
X754000Y19624000D01*
X14300500Y19624000D01*
X14300500Y18224000D01*
X14300567Y18222559D01*
X14300567Y18222542D01*
X14300841Y18216627D01*
X14301803Y18195812D01*
X14332528Y18087827D01*
X14400186Y17998233D01*
X14495641Y17939130D01*
X14507113Y17936986D01*
X14507114Y17936985D01*
X14600275Y17919570D01*
X14600277Y17919570D01*
X14606000Y17918500D01*
X15366000Y17918500D01*
X15367441Y17918567D01*
X15367458Y17918567D01*
X15381558Y17919219D01*
X15394188Y17919803D01*
X15502173Y17950528D01*
X15591767Y18018186D01*
X15650870Y18113641D01*
X15669033Y18210800D01*
X15670430Y18218275D01*
X15670430Y18218277D01*
X15671500Y18224000D01*
X15671500Y18708075D01*
X15691502Y18776196D01*
X15708405Y18797170D01*
X16625515Y19714280D01*
X16687827Y19748306D01*
X16758642Y19743241D01*
X16815478Y19700694D01*
X16840289Y19634174D01*
X16840182Y19624000D01*
X16840500Y19624000D01*
X16840500Y18224000D01*
X16840567Y18222559D01*
X16840567Y18222542D01*
X16840841Y18216627D01*
X16841803Y18195812D01*
X16872528Y18087827D01*
X16940186Y17998233D01*
X17035641Y17939130D01*
X17047113Y17936986D01*
X17047114Y17936985D01*
X17140275Y17919570D01*
X17140277Y17919570D01*
X17146000Y17918500D01*
X17906000Y17918500D01*
X17907441Y17918567D01*
X17907458Y17918567D01*
X17921558Y17919219D01*
X17934188Y17919803D01*
X18042173Y17950528D01*
X18131767Y18018186D01*
X18190870Y18113641D01*
X18209033Y18210800D01*
X18210430Y18218275D01*
X18210430Y18218277D01*
X18211500Y18224000D01*
X18211500Y19624000D01*
X18211236Y19629725D01*
X18210533Y19644916D01*
X18210197Y19652188D01*
X18203488Y19675767D01*
X18204082Y19746762D01*
X18235582Y19799347D01*
X19238722Y20802486D01*
X19251113Y20813354D01*
X19268407Y20826624D01*
X19274953Y20831647D01*
X19298269Y20862033D01*
X19298273Y20862037D01*
X19371178Y20957050D01*
X19431668Y21103085D01*
X19452300Y21259800D01*
X19448378Y21289590D01*
X19447300Y21306037D01*
X19447300Y21706560D01*
X19467302Y21774681D01*
X19520958Y21821174D01*
X19591232Y21831278D01*
X19633229Y21817396D01*
X19699447Y21781592D01*
X19710766Y21776834D01*
X19845492Y21735131D01*
X19859595Y21734925D01*
X19862800Y21741680D01*
X19862800Y23968523D01*
X19860746Y23975520D01*
X20370800Y23975520D01*
X20370800Y21748677D01*
X20374773Y21735146D01*
X20382568Y21734026D01*
X20509098Y21771265D01*
X20520466Y21775858D01*
X20696880Y21868085D01*
X20766515Y21881919D01*
X20832576Y21855909D01*
X20861621Y21822583D01*
X20862422Y21820650D01*
X20958647Y21695247D01*
X20965192Y21690225D01*
X20982491Y21676951D01*
X20994882Y21666083D01*
X22843239Y19817726D01*
X22877265Y19755414D01*
X22877998Y19705478D01*
X22861371Y19616535D01*
X22861370Y19616524D01*
X22860300Y19610800D01*
X22860300Y18210800D01*
X22860367Y18209359D01*
X22860367Y18209342D01*
X22860993Y18195812D01*
X22861603Y18182612D01*
X22892328Y18074627D01*
X22959986Y17985033D01*
X23055441Y17925930D01*
X23066913Y17923786D01*
X23066914Y17923785D01*
X23160075Y17906370D01*
X23160077Y17906370D01*
X23165800Y17905300D01*
X23925800Y17905300D01*
X23927241Y17905367D01*
X23927258Y17905367D01*
X23941358Y17906019D01*
X23953988Y17906603D01*
X24061973Y17937328D01*
X24151567Y18004986D01*
X24210670Y18100441D01*
X24215283Y18125114D01*
X24230230Y18205075D01*
X24230230Y18205077D01*
X24231300Y18210800D01*
X24231300Y19466128D01*
X24251302Y19534249D01*
X24304958Y19580742D01*
X24375232Y19590846D01*
X24439812Y19561352D01*
X24446170Y19555434D01*
X24451147Y19548947D01*
X24457697Y19543921D01*
X24457698Y19543920D01*
X24481537Y19525628D01*
X24480352Y19524084D01*
X24480353Y19524083D01*
X24481538Y19525627D01*
X24559078Y19466128D01*
X24576550Y19452721D01*
X24668531Y19414622D01*
X24722585Y19392232D01*
X24841321Y19376600D01*
X24871111Y19372678D01*
X24871112Y19372678D01*
X24879300Y19371600D01*
X24887488Y19372678D01*
X24909091Y19375522D01*
X24925537Y19376600D01*
X25060974Y19376600D01*
X25129095Y19356598D01*
X25150070Y19339695D01*
X25363396Y19126368D01*
X25397421Y19064056D01*
X25400300Y19037273D01*
X25400300Y18210800D01*
X25400367Y18209359D01*
X25400367Y18209342D01*
X25400993Y18195812D01*
X25401603Y18182612D01*
X25432328Y18074627D01*
X25499986Y17985033D01*
X25595441Y17925930D01*
X25606913Y17923786D01*
X25606914Y17923785D01*
X25700075Y17906370D01*
X25700077Y17906370D01*
X25705800Y17905300D01*
X26465800Y17905300D01*
X26467241Y17905367D01*
X26467258Y17905367D01*
X26481358Y17906019D01*
X26493988Y17906603D01*
X26601973Y17937328D01*
X26691567Y18004986D01*
X26750670Y18100441D01*
X26755283Y18125114D01*
X26770230Y18205075D01*
X26770230Y18205077D01*
X26771300Y18210800D01*
X26771300Y19610800D01*
X26769997Y19638988D01*
X26739272Y19746973D01*
X26671614Y19836567D01*
X26576159Y19895670D01*
X26564687Y19897814D01*
X26564686Y19897815D01*
X26471525Y19915230D01*
X26471523Y19915230D01*
X26465800Y19916300D01*
X26324127Y19916300D01*
X26256006Y19936302D01*
X26235032Y19953204D01*
X25819214Y20369021D01*
X25808346Y20381413D01*
X25795076Y20398707D01*
X25790053Y20405253D01*
X25664650Y20501478D01*
X25518615Y20561968D01*
X25399879Y20577600D01*
X25361900Y20582600D01*
X25353712Y20581522D01*
X25332109Y20578678D01*
X25315663Y20577600D01*
X25180225Y20577600D01*
X25112104Y20597602D01*
X25091130Y20614505D01*
X24171908Y21533727D01*
X24137882Y21596039D01*
X24142947Y21666854D01*
X24185494Y21723690D01*
X24225428Y21743695D01*
X24319089Y21771261D01*
X24330466Y21775858D01*
X24503401Y21866266D01*
X24513663Y21872982D01*
X24665737Y21995253D01*
X24674503Y22003837D01*
X24799938Y22153323D01*
X24806862Y22163434D01*
X24900875Y22334445D01*
X24905703Y22345709D01*
X24964707Y22531712D01*
X24967258Y22543718D01*
X24972068Y22586598D01*
X24969515Y22601128D01*
X24956971Y22604600D01*
X23798800Y22604600D01*
X23730679Y22624602D01*
X23684186Y22678258D01*
X23672800Y22730600D01*
X23672800Y22949417D01*
X25342362Y22949417D01*
X25351076Y22937897D01*
X25448778Y22866258D01*
X25456697Y22861310D01*
X25679655Y22744006D01*
X25688229Y22740278D01*
X25926086Y22657215D01*
X25935095Y22654801D01*
X26182634Y22607804D01*
X26191891Y22606750D01*
X26443660Y22596857D01*
X26452974Y22597183D01*
X26703428Y22624612D01*
X26712605Y22626313D01*
X26956254Y22690460D01*
X26965074Y22693497D01*
X27196569Y22792955D01*
X27204841Y22797262D01*
X27419086Y22929841D01*
X27426039Y22934892D01*
X27434368Y22947530D01*
X27428304Y22957886D01*
X26399612Y23986578D01*
X26385668Y23994192D01*
X26383835Y23994061D01*
X26377220Y23989810D01*
X25349020Y22961610D01*
X25342362Y22949417D01*
X23672800Y22949417D01*
X23672800Y23968523D01*
X23670746Y23975520D01*
X24180800Y23975520D01*
X24180800Y23130715D01*
X24185275Y23115476D01*
X24186665Y23114271D01*
X24194348Y23112600D01*
X24956585Y23112600D01*
X24971012Y23116836D01*
X24973073Y23129189D01*
X24970156Y23158937D01*
X24967773Y23170971D01*
X24959929Y23196952D01*
X24959388Y23267947D01*
X24991456Y23322466D01*
X26014778Y24345788D01*
X26021156Y24357468D01*
X26751208Y24357468D01*
X26751339Y24355635D01*
X26755590Y24349020D01*
X27786764Y23317846D01*
X27799144Y23311086D01*
X27807485Y23317330D01*
X27933630Y23513444D01*
X27938073Y23521627D01*
X28041555Y23751350D01*
X28044749Y23760125D01*
X28113138Y24002616D01*
X28114996Y24011745D01*
X28146986Y24263201D01*
X28147467Y24269489D01*
X28149717Y24355440D01*
X28149566Y24361749D01*
X28130781Y24614536D01*
X28129405Y24623742D01*
X28073796Y24869494D01*
X28071072Y24878405D01*
X27979751Y25113238D01*
X27975740Y25121647D01*
X27850712Y25340399D01*
X27845501Y25348125D01*
X27808242Y25395388D01*
X27796317Y25403859D01*
X27784783Y25397373D01*
X26758822Y24371412D01*
X26751208Y24357468D01*
X26021156Y24357468D01*
X26022392Y24359732D01*
X26022261Y24361565D01*
X26018010Y24368180D01*
X24988072Y25398118D01*
X24974764Y25405385D01*
X24964725Y25398263D01*
X24954503Y25385973D01*
X24949090Y25378384D01*
X24818383Y25162986D01*
X24814145Y25154669D01*
X24716714Y24922323D01*
X24713753Y24913473D01*
X24651737Y24669281D01*
X24650115Y24660084D01*
X24624873Y24409404D01*
X24624628Y24400079D01*
X24636717Y24148414D01*
X24637853Y24139159D01*
X24666319Y23996054D01*
X24659991Y23925340D01*
X24616437Y23869272D01*
X24549485Y23845653D01*
X24482811Y23860636D01*
X24344153Y23935608D01*
X24332834Y23940366D01*
X24198108Y23982069D01*
X24184005Y23982275D01*
X24180800Y23975520D01*
X23670746Y23975520D01*
X23668827Y23982054D01*
X23661031Y23983175D01*
X23658239Y23982353D01*
X23587243Y23982307D01*
X23527492Y24020652D01*
X23497957Y24085214D01*
X23499697Y24130711D01*
X23506968Y24163238D01*
X23507300Y24169176D01*
X23507300Y24504625D01*
X23492343Y24642306D01*
X23433404Y24817441D01*
X23338231Y24975835D01*
X23211267Y25110096D01*
X23058433Y25213962D01*
X23052099Y25216495D01*
X23052096Y25216497D01*
X22893198Y25280052D01*
X22893193Y25280053D01*
X22886861Y25282586D01*
X22795082Y25297780D01*
X22711293Y25311651D01*
X22711289Y25311651D01*
X22704555Y25312766D01*
X22697738Y25312409D01*
X22697734Y25312409D01*
X22544723Y25304390D01*
X22520022Y25303095D01*
X22513449Y25301284D01*
X22513446Y25301284D01*
X22375186Y25263201D01*
X22341869Y25254024D01*
X22178410Y25167842D01*
X22173194Y25163434D01*
X22173193Y25163433D01*
X22106419Y25107005D01*
X22041478Y25078313D01*
X21971334Y25089286D01*
X21944693Y25106473D01*
X21941267Y25110096D01*
X21788433Y25213962D01*
X21782099Y25216495D01*
X21782096Y25216497D01*
X21623198Y25280052D01*
X21623193Y25280053D01*
X21616861Y25282586D01*
X21525082Y25297780D01*
X21441293Y25311651D01*
X21441289Y25311651D01*
X21434555Y25312766D01*
X21427738Y25312409D01*
X21427734Y25312409D01*
X21274723Y25304390D01*
X21250022Y25303095D01*
X21243449Y25301284D01*
X21243446Y25301284D01*
X21105186Y25263201D01*
X21071869Y25254024D01*
X20908410Y25167842D01*
X20903197Y25163437D01*
X20903193Y25163434D01*
X20772485Y25052977D01*
X20772481Y25052973D01*
X20767271Y25048570D01*
X20655036Y24901772D01*
X20576942Y24734298D01*
X20536632Y24553962D01*
X20536300Y24548024D01*
X20536300Y24212575D01*
X20536669Y24209179D01*
X20536669Y24209178D01*
X20546653Y24117273D01*
X20534125Y24047390D01*
X20485804Y23995375D01*
X20417032Y23977740D01*
X20391725Y23982017D01*
X20374005Y23982275D01*
X20370800Y23975520D01*
X19860746Y23975520D01*
X19858827Y23982054D01*
X19851031Y23983175D01*
X19848239Y23982353D01*
X19777243Y23982307D01*
X19717492Y24020652D01*
X19687957Y24085214D01*
X19689697Y24130711D01*
X19696968Y24163238D01*
X19697300Y24169176D01*
X19697300Y24504625D01*
X19682343Y24642306D01*
X19623404Y24817441D01*
X19528231Y24975835D01*
X19401267Y25110096D01*
X19248433Y25213962D01*
X19242099Y25216495D01*
X19242096Y25216497D01*
X19083198Y25280052D01*
X19083193Y25280053D01*
X19076861Y25282586D01*
X18985082Y25297780D01*
X18901293Y25311651D01*
X18901289Y25311651D01*
X18894555Y25312766D01*
X18887738Y25312409D01*
X18887734Y25312409D01*
X18734723Y25304390D01*
X18710022Y25303095D01*
X18703449Y25301284D01*
X18703446Y25301284D01*
X18565186Y25263201D01*
X18531869Y25254024D01*
X18368410Y25167842D01*
X18363194Y25163434D01*
X18363193Y25163433D01*
X18296419Y25107005D01*
X18231478Y25078313D01*
X18161334Y25089286D01*
X18134693Y25106473D01*
X18131267Y25110096D01*
X17978433Y25213962D01*
X17972099Y25216495D01*
X17972096Y25216497D01*
X17813198Y25280052D01*
X17813193Y25280053D01*
X17806861Y25282586D01*
X17715082Y25297780D01*
X17631293Y25311651D01*
X17631289Y25311651D01*
X17624555Y25312766D01*
X17617738Y25312409D01*
X17617734Y25312409D01*
X17464723Y25304390D01*
X17440022Y25303095D01*
X17433449Y25301284D01*
X17433446Y25301284D01*
X17295186Y25263201D01*
X17261869Y25254024D01*
X17098410Y25167842D01*
X17093197Y25163437D01*
X17093193Y25163434D01*
X16962485Y25052977D01*
X16962481Y25052973D01*
X16957271Y25048570D01*
X16845036Y24901772D01*
X16766942Y24734298D01*
X16726632Y24553962D01*
X16726300Y24548024D01*
X16726300Y24212575D01*
X16726669Y24209179D01*
X16726669Y24209178D01*
X16736653Y24117273D01*
X16724125Y24047390D01*
X16675804Y23995375D01*
X16607032Y23977740D01*
X16581725Y23982017D01*
X16564005Y23982275D01*
X16560800Y23975520D01*
X16560800Y21748677D01*
X16564773Y21735146D01*
X16572568Y21734026D01*
X16628660Y21750534D01*
X16699657Y21750578D01*
X16759407Y21712233D01*
X16788941Y21647670D01*
X16778882Y21577390D01*
X16753330Y21540565D01*
X15179170Y19966405D01*
X15116858Y19932379D01*
X15090075Y19929500D01*
X14606000Y19929500D01*
X14604559Y19929433D01*
X14604542Y19929433D01*
X14590442Y19928781D01*
X14577812Y19928197D01*
X14469827Y19897472D01*
X14380233Y19829814D01*
X14321130Y19734359D01*
X14318986Y19722887D01*
X14318985Y19722886D01*
X14315731Y19705478D01*
X14300500Y19624000D01*
X754000Y19624000D01*
X754000Y22588011D01*
X15260527Y22588011D01*
X15263444Y22558263D01*
X15265827Y22546226D01*
X15322227Y22359421D01*
X15326902Y22348080D01*
X15418507Y22175796D01*
X15425306Y22165561D01*
X15548632Y22014348D01*
X15557271Y22005649D01*
X15707628Y21881262D01*
X15717799Y21874402D01*
X15889447Y21781592D01*
X15900766Y21776834D01*
X16035492Y21735131D01*
X16049595Y21734925D01*
X16052800Y21741680D01*
X16052800Y22586485D01*
X16048325Y22601724D01*
X16046935Y22602929D01*
X16039252Y22604600D01*
X15277015Y22604600D01*
X15262588Y22600364D01*
X15260527Y22588011D01*
X754000Y22588011D01*
X754000Y23130602D01*
X15261532Y23130602D01*
X15264085Y23116072D01*
X15276629Y23112600D01*
X16034685Y23112600D01*
X16049924Y23117075D01*
X16051129Y23118465D01*
X16052800Y23126148D01*
X16052800Y23968523D01*
X16048827Y23982054D01*
X16041032Y23983174D01*
X15914502Y23945935D01*
X15903134Y23941342D01*
X15730199Y23850934D01*
X15719937Y23844218D01*
X15567863Y23721947D01*
X15559097Y23713363D01*
X15433662Y23563877D01*
X15426738Y23553766D01*
X15332725Y23382755D01*
X15327897Y23371491D01*
X15268893Y23185488D01*
X15266342Y23173482D01*
X15261532Y23130602D01*
X754000Y23130602D01*
X754000Y23949417D01*
X12512362Y23949417D01*
X12521076Y23937897D01*
X12618778Y23866258D01*
X12626697Y23861310D01*
X12849655Y23744006D01*
X12858229Y23740278D01*
X13096086Y23657215D01*
X13105095Y23654801D01*
X13352634Y23607804D01*
X13361891Y23606750D01*
X13613660Y23596857D01*
X13622974Y23597183D01*
X13873428Y23624612D01*
X13882605Y23626313D01*
X14126254Y23690460D01*
X14135074Y23693497D01*
X14366569Y23792955D01*
X14374841Y23797262D01*
X14589086Y23929841D01*
X14596039Y23934892D01*
X14604368Y23947530D01*
X14598304Y23957886D01*
X13569612Y24986578D01*
X13555668Y24994192D01*
X13553835Y24994061D01*
X13547220Y24989810D01*
X12519020Y23961610D01*
X12512362Y23949417D01*
X754000Y23949417D01*
X754000Y25400079D01*
X11794628Y25400079D01*
X11806717Y25148414D01*
X11807853Y25139159D01*
X11857010Y24892036D01*
X11859498Y24883064D01*
X11944638Y24645926D01*
X11948432Y24637404D01*
X12067690Y24415457D01*
X12072699Y24407594D01*
X12136195Y24322562D01*
X12147455Y24314112D01*
X12159873Y24320883D01*
X13184778Y25345788D01*
X13191156Y25357468D01*
X13921208Y25357468D01*
X13921339Y25355635D01*
X13925590Y25349020D01*
X14956764Y24317846D01*
X14969144Y24311086D01*
X14977485Y24317330D01*
X15103630Y24513444D01*
X15108073Y24521627D01*
X15211555Y24751350D01*
X15214749Y24760125D01*
X15283138Y25002616D01*
X15284996Y25011745D01*
X15316986Y25263201D01*
X15317467Y25269489D01*
X15319717Y25355440D01*
X15319566Y25361749D01*
X15300781Y25614536D01*
X15299405Y25623742D01*
X15266344Y25769848D01*
X25339965Y25769848D01*
X25344538Y25760072D01*
X26373988Y24730622D01*
X26387932Y24723008D01*
X26389765Y24723139D01*
X26396380Y24727390D01*
X27425269Y25756279D01*
X27431653Y25767969D01*
X27422241Y25780079D01*
X27285428Y25874990D01*
X27277399Y25879719D01*
X27051419Y25991160D01*
X27042786Y25994648D01*
X26802815Y26071463D01*
X26793754Y26073639D01*
X26545067Y26114140D01*
X26535780Y26114952D01*
X26283848Y26118251D01*
X26274538Y26117681D01*
X26024886Y26083705D01*
X26015759Y26081764D01*
X25773883Y26011264D01*
X25765130Y26007992D01*
X25536327Y25902512D01*
X25528171Y25897992D01*
X25349102Y25780589D01*
X25339965Y25769848D01*
X15266344Y25769848D01*
X15243796Y25869494D01*
X15241072Y25878405D01*
X15149751Y26113238D01*
X15145740Y26121647D01*
X15020712Y26340399D01*
X15015501Y26348125D01*
X14978242Y26395388D01*
X14966317Y26403859D01*
X14954783Y26397373D01*
X13928822Y25371412D01*
X13921208Y25357468D01*
X13191156Y25357468D01*
X13192392Y25359732D01*
X13192261Y25361565D01*
X13188010Y25368180D01*
X12158072Y26398118D01*
X12144764Y26405385D01*
X12134725Y26398263D01*
X12124503Y26385973D01*
X12119090Y26378384D01*
X11988383Y26162986D01*
X11984145Y26154669D01*
X11886714Y25922323D01*
X11883753Y25913473D01*
X11821737Y25669281D01*
X11820115Y25660084D01*
X11794873Y25409404D01*
X11794628Y25400079D01*
X754000Y25400079D01*
X754000Y26769848D01*
X12509965Y26769848D01*
X12514538Y26760072D01*
X13543988Y25730622D01*
X13557932Y25723008D01*
X13559765Y25723139D01*
X13566380Y25727390D01*
X14595269Y26756279D01*
X14601653Y26767969D01*
X14592241Y26780079D01*
X14455428Y26874990D01*
X14447399Y26879719D01*
X14221419Y26991160D01*
X14212786Y26994648D01*
X13972815Y27071463D01*
X13963754Y27073639D01*
X13715067Y27114140D01*
X13705780Y27114952D01*
X13453848Y27118251D01*
X13444538Y27117681D01*
X13194886Y27083705D01*
X13185759Y27081764D01*
X12943883Y27011264D01*
X12935130Y27007992D01*
X12706327Y26902512D01*
X12698171Y26897992D01*
X12519102Y26780589D01*
X12509965Y26769848D01*
X754000Y26769848D01*
X754000Y29600000D01*
X774002Y29668121D01*
X827658Y29714614D01*
X880000Y29726000D01*
X39760000Y29726000D01*
X39828121Y29705998D01*
G37*
%TD.AperFunction*%
%TD*%
M02*
