M48
; DRILL file {KiCad (5.99.0-10394-g2e15de97e0)} date Tue May 18 08:01:04 2021
; FORMAT={3:3/ absolute / metric / suppress leading zeros}
; #@! TF.CreationDate,2021-05-18T08:01:04+02:00
; #@! TF.GenerationSoftware,Kicad,Pcbnew,(5.99.0-10394-g2e15de97e0)
; #@! TF.FileFunction,Plated,1,2,PTH
FMAT,2
METRIC,TZ
; #@! TA.AperFunction,Plated,PTH,ComponentDrill
T1C0.740
; #@! TA.AperFunction,Plated,PTH,ComponentDrill
T2C1.350
; #@! TA.AperFunction,Plated,PTH,ComponentDrill
T3C1.500
; #@! TA.AperFunction,Plated,PTH,ComponentDrill
T4C1.700
; #@! TA.AperFunction,Plated,PTH,ComponentDrill
T5C3.000
%
G90
G05
T1
X16307Y22859
X17577Y24359
X18847Y24359
X20117Y22859
X21387Y24359
X22657Y24359
X23927Y22859
T2
X13557Y25359
X26387Y24359
T3
X14910Y8763
X25324Y8763
T4
X12370Y11303
X12370Y6223
X17450Y11303
X17450Y6223
X22784Y11303
X22784Y6223
X27864Y11303
X27864Y6223
T5
X5080Y25400
X5080Y5080
X35560Y25400
X35560Y5080
T0
M30
