%TF.GenerationSoftware,KiCad,Pcbnew,(5.99.0-10394-g2e15de97e0)*%
%TF.CreationDate,2021-05-18T08:33:44+02:00*%
%TF.ProjectId,SATABAL01A,53415441-4241-44c3-9031-412e6b696361,rev?*%
%TF.SameCoordinates,Original*%
%TF.FileFunction,Legend,Bot*%
%TF.FilePolarity,Positive*%
%FSLAX46Y46*%
G04 Gerber Fmt 4.6, Leading zero omitted, Abs format (unit mm)*
G04 Created by KiCad (PCBNEW (5.99.0-10394-g2e15de97e0)) date 2021-05-18 08:33:44*
%MOMM*%
%LPD*%
G01*
G04 APERTURE LIST*
%ADD10C,0.150000*%
%ADD11C,0.120000*%
G04 APERTURE END LIST*
D10*
%TO.C,T2*%
X12914380Y17970904D02*
X12914380Y17399476D01*
X13914380Y17685190D02*
X12914380Y17685190D01*
X13009619Y17113761D02*
X12962000Y17066142D01*
X12914380Y16970904D01*
X12914380Y16732809D01*
X12962000Y16637571D01*
X13009619Y16589952D01*
X13104857Y16542333D01*
X13200095Y16542333D01*
X13342952Y16589952D01*
X13914380Y17161380D01*
X13914380Y16542333D01*
%TO.C,T1*%
X21474180Y17957704D02*
X21474180Y17386276D01*
X22474180Y17671990D02*
X21474180Y17671990D01*
X22474180Y16529133D02*
X22474180Y17100561D01*
X22474180Y16814847D02*
X21474180Y16814847D01*
X21617038Y16910085D01*
X21712276Y17005323D01*
X21759895Y17100561D01*
D11*
%TO.C,T2*%
X18356000Y15609000D02*
X18156000Y15609000D01*
X18356000Y18809000D02*
X18356000Y15609000D01*
X18156000Y18809000D02*
X18356000Y18809000D01*
X14156000Y18809000D02*
X14356000Y18809000D01*
X14156000Y15609000D02*
X14156000Y18809000D01*
X14356000Y18809000D02*
X14356000Y19609000D01*
X15656000Y18809000D02*
X16856000Y18809000D01*
X14356000Y15609000D02*
X14156000Y15609000D01*
%TO.C,T1*%
X22715800Y15595800D02*
X22715800Y18795800D01*
X24215800Y18795800D02*
X25415800Y18795800D01*
X22915800Y18795800D02*
X22915800Y19595800D01*
X26715800Y18795800D02*
X26915800Y18795800D01*
X22715800Y18795800D02*
X22915800Y18795800D01*
X22915800Y15595800D02*
X22715800Y15595800D01*
X26915800Y15595800D02*
X26715800Y15595800D01*
X26915800Y18795800D02*
X26915800Y15595800D01*
%TD*%
M02*
